<?xml version="1.0" encoding="utf-8"?>
<!-- Generator: Adobe Illustrator 16.0.0, SVG Export Plug-In . SVG Version: 6.00 Build 0)  -->
<!DOCTYPE svg PUBLIC "-//W3C//DTD SVG 1.1//EN" "http://www.w3.org/Graphics/SVG/1.1/DTD/svg11.dtd">
<svg version="1.1" id="Layer_1" xmlns="http://www.w3.org/2000/svg" xmlns:xlink="http://www.w3.org/1999/xlink" x="0px" y="0px"
	 width="48px" height="48px" viewBox="0 0 48 48" enable-background="new 0 0 48 48" xml:space="preserve">
<g>
	<rect fill="#808080" width="48" height="48"/>
	<g>
		<path fill="#CCCCCC" d="M27.208,6.092c0,0-3.142-0.966-5.944-0.405c-1.8,0.36-1.621,0.049-2.837,0.632s-1.189,0.904-2.162,1.394
			c-0.84,0.423-1.936,1.301-2.288,2.217c-0.531,1.378-0.211,1.634-0.481,2.58s-0.823,2.229-0.614,3.175s0.021,2.034,0.487,2.778
			s0.486,1.434,1.027,1.839s13.557-9.413,13.759-9.75s3.917,1.75,4.053,2.429s1.065,3.915,0.998,4.861s0.197,2.895,1.107,1.519
			c1.05-1.587,1.206-5.701,0.732-6.917s-2.095-3.378-2.567-3.783s-1.014-0.676-1.892-0.946C29.495,7.378,28.654,6.533,27.208,6.092z
			"/>
		<g>
			<g>
				
					<ellipse transform="matrix(0.912 -0.4102 0.4102 0.912 -8.6857 8.2125)" fill="#CCCCCC" cx="14.795" cy="24.347" rx="1.281" ry="4.031"/>
				<path fill="#CCCCCC" d="M23.889,7.984c-3.074,0-8.764,3.445-9.094,5.944s-1.79,4.399,0.247,11.348
					c2.161,7.372,3.221,8.135,6.525,9.448c4.034,1.603,3.165-0.396,3.165-0.396L23.889,7.984z"/>
			</g>
			<g>
				
					<ellipse transform="matrix(-0.912 -0.4102 0.4102 -0.912 53.4995 60.1723)" fill="#CCCCCC" cx="33.205" cy="24.347" rx="1.281" ry="4.031"/>
				<path fill="#CCCCCC" d="M24.111,7.984c3.074,0,8.764,3.445,9.094,5.944s1.79,4.399-0.247,11.348
					c-2.161,7.372-3.221,8.135-6.525,9.448c-4.034,1.603-3.165-0.396-3.165-0.396L24.111,7.984z"/>
			</g>
		</g>
		<g>
			<path fill="#CCCCCC" d="M5.039,48c0,0-0.525-4.162,2.274-5.474c3.26-1.527,10.149-5.249,10.236-6.649
				c0.087-1.399,0.438-5.512,0.438-5.512l6.124,1.4L24.43,48H5.039z"/>
			<path fill="#CCCCCC" d="M42.961,48c0,0,0.525-4.162-2.274-5.474c-3.26-1.527-10.149-5.249-10.236-6.649
				c-0.087-1.399-0.438-5.512-0.438-5.512l-6.124,1.4L23.57,48H42.961z"/>
		</g>
	</g>
</g>
</svg>
