<?xml version="1.0" encoding="utf-8"?>
<!-- Generator: Adobe Illustrator 16.0.0, SVG Export Plug-In . SVG Version: 6.00 Build 0)  -->
<!DOCTYPE svg PUBLIC "-//W3C//DTD SVG 1.1//EN" "http://www.w3.org/Graphics/SVG/1.1/DTD/svg11.dtd">
<svg version="1.1" id="Layer_1" xmlns="http://www.w3.org/2000/svg" xmlns:xlink="http://www.w3.org/1999/xlink" x="0px" y="0px"
	 width="310px" height="300px" viewBox="0 0 310 300" enable-background="new 0 0 310 300" xml:space="preserve">
<g>
	<rect fill="#D85B3A" width="310" height="300"/>
	<g>
		<path fill="#FFFFFF" d="M109.143,239.88h-3.154v-12.766H91.701v12.766h-3.154v-27.127h3.154v11.541h14.287v-11.541h3.154V239.88z"
			/>
		<path fill="#FFFFFF" d="M140.129,226.279c0,4.342-1.099,7.756-3.294,10.242c-2.196,2.486-5.248,3.729-9.157,3.729
			c-3.995,0-7.078-1.222-9.249-3.664c-2.171-2.443-3.257-5.892-3.257-10.345c0-4.416,1.089-7.839,3.266-10.271
			c2.178-2.43,5.27-3.646,9.277-3.646c3.896,0,6.939,1.237,9.129,3.711C139.033,218.512,140.129,221.926,140.129,226.279z
			 M118.512,226.279c0,3.674,0.783,6.46,2.348,8.358c1.564,1.899,3.838,2.849,6.818,2.849c3.006,0,5.275-0.946,6.811-2.839
			c1.533-1.893,2.301-4.682,2.301-8.368c0-3.648-0.765-6.417-2.292-8.304c-1.528-1.886-3.788-2.829-6.782-2.829
			c-3.006,0-5.291,0.949-6.855,2.849C119.295,219.894,118.512,222.655,118.512,226.279z"/>
		<path fill="#FFFFFF" d="M154.527,239.88h-3.154v-24.325h-8.592v-2.802h20.336v2.802h-8.59V239.88z"/>
		<path fill="#FFFFFF" d="M182.322,239.88h-15.123v-27.127h15.123v2.802h-11.969v8.739h11.244v2.783h-11.244v9.982h11.969V239.88z"
			/>
		<path fill="#FFFFFF" d="M188.334,239.88v-27.127h3.154v24.27h11.967v2.857H188.334z"/>
		<path fill="#FFFFFF" d="M223.365,232.662c0,2.388-0.866,4.249-2.598,5.585c-1.732,1.336-4.082,2.004-7.051,2.004
			c-3.217,0-5.69-0.414-7.422-1.243v-3.043c1.113,0.471,2.325,0.842,3.637,1.113c1.311,0.272,2.609,0.408,3.896,0.408
			c2.103,0,3.686-0.399,4.75-1.196c1.063-0.799,1.596-1.908,1.596-3.331c0-0.939-0.188-1.71-0.566-2.31
			c-0.377-0.601-1.008-1.153-1.893-1.661c-0.884-0.507-2.229-1.082-4.035-1.726c-2.523-0.902-4.326-1.973-5.408-3.21
			c-1.083-1.236-1.624-2.851-1.624-4.843c0-2.09,0.785-3.754,2.356-4.991c1.57-1.236,3.648-1.855,6.234-1.855
			c2.696,0,5.177,0.495,7.44,1.484l-0.983,2.746c-2.239-0.939-4.416-1.41-6.531-1.41c-1.67,0-2.976,0.359-3.915,1.076
			c-0.94,0.718-1.41,1.714-1.41,2.987c0,0.94,0.173,1.71,0.52,2.311c0.346,0.6,0.931,1.15,1.753,1.65
			c0.823,0.502,2.081,1.056,3.776,1.661c2.845,1.015,4.803,2.104,5.872,3.266C222.83,229.298,223.365,230.807,223.365,232.662z"/>
	</g>
	<g>
		<polygon fill="#FFFFFF" points="136,169 109,169 109,73 136,61 		"/>
		<path fill="#FFFFFF" d="M143,61v108h58V73L143,61z M183,165h-18v-35l18,3V165z"/>
	</g>
</g>
</svg>
