<?xml version="1.0" encoding="utf-8"?>
<!-- Generator: Adobe Illustrator 16.0.0, SVG Export Plug-In . SVG Version: 6.00 Build 0)  -->
<!DOCTYPE svg PUBLIC "-//W3C//DTD SVG 1.1//EN" "http://www.w3.org/Graphics/SVG/1.1/DTD/svg11.dtd">
<svg version="1.1" id="Layer_1" xmlns="http://www.w3.org/2000/svg" xmlns:xlink="http://www.w3.org/1999/xlink" x="0px" y="0px"
	 width="310px" height="300px" viewBox="0 0 310 300" enable-background="new 0 0 310 300" xml:space="preserve">
<g>
	<rect fill="#D85B3A" width="310" height="300"/>
	<g>
		<path fill="#FFFFFF" d="M68.071,212.753h3.396l-9.778,27.127h-3.117l-9.723-27.127h3.34l6.234,17.553
			c0.717,2.017,1.286,3.978,1.707,5.882c0.445-2.004,1.026-4.001,1.744-5.993L68.071,212.753z"/>
		<path fill="#FFFFFF" d="M90.318,239.88H75.196v-27.127h15.122v2.802H78.351v8.739h11.244v2.783H78.351v9.982h11.968V239.88z"/>
		<path fill="#FFFFFF" d="M117.52,239.88h-3.6l-14.825-22.767h-0.148c0.198,2.672,0.297,5.121,0.297,7.348v15.419H96.33v-27.127
			h3.562l14.788,22.674h0.148c-0.025-0.334-0.081-1.407-0.167-3.219c-0.087-1.812-0.118-3.108-0.093-3.888v-15.567h2.95V239.88z"/>
		<path fill="#FFFFFF" d="M145.463,212.753v17.553c0,3.093-0.934,5.523-2.802,7.292c-1.868,1.77-4.435,2.653-7.7,2.653
			s-5.792-0.891-7.58-2.672c-1.788-1.781-2.681-4.23-2.681-7.348v-17.479h3.154v17.701c0,2.264,0.618,4.002,1.855,5.214
			c1.237,1.213,3.055,1.818,5.455,1.818c2.288,0,4.051-0.609,5.288-1.827c1.237-1.219,1.855-2.966,1.855-5.242v-17.664H145.463z"/>
		<path fill="#FFFFFF" d="M167.766,239.88h-15.122v-27.127h15.122v2.802h-11.968v8.739h11.244v2.783h-11.244v9.982h11.968V239.88z"
			/>
		<path fill="#FFFFFF" d="M195.653,239.88l-9.203-24.047h-0.148c0.173,1.905,0.26,4.169,0.26,6.791v17.256h-2.913v-27.127h4.75
			l8.591,22.377h0.148l8.665-22.377h4.713v27.127h-3.154v-17.479c0-2.004,0.086-4.181,0.26-6.531h-0.148l-9.277,24.01H195.653z"/>
		<path fill="#FFFFFF" d="M235.008,239.88l-3.377-8.628h-10.873l-3.34,8.628h-3.191l10.725-27.238h2.653l10.669,27.238H235.008z
			 M230.647,228.413l-3.154-8.405c-0.408-1.063-0.829-2.368-1.262-3.915c-0.272,1.188-0.662,2.493-1.169,3.915l-3.191,8.405H230.647
			z"/>
		<path fill="#FFFFFF" d="M259.203,220.657c0,2.746-0.938,4.858-2.811,6.336c-1.875,1.479-4.556,2.218-8.044,2.218h-3.191v10.669
			h-3.154v-27.127h7.032C255.813,212.753,259.203,215.388,259.203,220.657z M245.157,226.502h2.839c2.795,0,4.817-0.451,6.067-1.354
			c1.249-0.902,1.874-2.35,1.874-4.342c0-1.793-0.588-3.129-1.763-4.008c-1.176-0.878-3.006-1.317-5.492-1.317h-3.525V226.502z"/>
	</g>
	<g>
		<polygon fill="#FFFFFF" points="128,150.666 88,164 88,81.334 128,68 		"/>
		<polygon fill="#FFFFFF" points="182,81.334 222,68 222,150.666 182,164 		"/>
		<polygon fill="#FFFFFF" points="135,150.666 175,164 175,81.334 135,68 		"/>
	</g>
</g>
</svg>
