<?xml version="1.0" encoding="utf-8"?>
<!-- Generator: Adobe Illustrator 16.0.0, SVG Export Plug-In . SVG Version: 6.00 Build 0)  -->
<!DOCTYPE svg PUBLIC "-//W3C//DTD SVG 1.1//EN" "http://www.w3.org/Graphics/SVG/1.1/DTD/svg11.dtd">
<svg version="1.1" id="Layer_1" xmlns="http://www.w3.org/2000/svg" xmlns:xlink="http://www.w3.org/1999/xlink" x="0px" y="0px"
	 width="310px" height="300px" viewBox="0 0 310 300" enable-background="new 0 0 310 300" xml:space="preserve">
<g>
	<rect fill="#D85B3A" width="310" height="300"/>
</g>
<g>
	<polygon fill="#FFFFFF" points="128,150.666 88,164 88,81.334 128,68 	"/>
	<polygon fill="#FFFFFF" points="182,81.334 222,68 222,150.666 182,164 	"/>
	<polygon fill="#FFFFFF" points="135,150.666 175,164 175,81.334 135,68 	"/>
</g>
<g>
	<path fill="#FFFFFF" d="M55.324,239.88H52.17v-27.127h15.122v2.802H55.324v9.927h11.244v2.802H55.324V239.88z"/>
	<path fill="#FFFFFF" d="M71.782,239.88v-27.127h3.154v24.27h11.968v2.857H71.782z"/>
	<path fill="#FFFFFF" d="M115.052,226.279c0,4.342-1.099,7.756-3.294,10.242s-5.248,3.729-9.156,3.729
		c-3.996,0-7.078-1.222-9.25-3.664c-2.17-2.443-3.256-5.892-3.256-10.345c0-4.416,1.088-7.839,3.266-10.271
		c2.177-2.43,5.27-3.646,9.277-3.646c3.896,0,6.939,1.237,9.129,3.711C113.957,218.512,115.052,221.926,115.052,226.279z
		 M93.436,226.279c0,3.674,0.782,6.46,2.348,8.358c1.564,1.899,3.837,2.849,6.818,2.849c3.006,0,5.275-0.946,6.81-2.839
		s2.301-4.682,2.301-8.368c0-3.648-0.765-6.417-2.292-8.304c-1.527-1.886-3.788-2.829-6.781-2.829c-3.006,0-5.291,0.949-6.855,2.849
		C94.218,219.894,93.436,222.655,93.436,226.279z"/>
	<path fill="#FFFFFF" d="M144.646,226.279c0,4.342-1.098,7.756-3.293,10.242c-2.196,2.486-5.248,3.729-9.157,3.729
		c-3.995,0-7.079-1.222-9.249-3.664c-2.172-2.443-3.257-5.892-3.257-10.345c0-4.416,1.089-7.839,3.266-10.271
		c2.177-2.43,5.27-3.646,9.277-3.646c3.896,0,6.939,1.237,9.129,3.711C143.552,218.512,144.646,221.926,144.646,226.279z
		 M123.03,226.279c0,3.674,0.782,6.46,2.347,8.358c1.564,1.899,3.838,2.849,6.819,2.849c3.006,0,5.275-0.946,6.81-2.839
		c1.533-1.893,2.301-4.682,2.301-8.368c0-3.648-0.764-6.417-2.291-8.304c-1.528-1.886-3.789-2.829-6.782-2.829
		c-3.006,0-5.292,0.949-6.856,2.849C123.812,219.894,123.03,222.655,123.03,226.279z"/>
	<path fill="#FFFFFF" d="M153.85,228.599v11.281h-3.154v-27.127h7.44c3.327,0,5.786,0.638,7.376,1.911
		c1.589,1.274,2.384,3.191,2.384,5.752c0,3.588-1.818,6.012-5.455,7.273l7.366,12.19h-3.729l-6.568-11.281H153.85z M153.85,225.89
		h4.323c2.227,0,3.859-0.442,4.898-1.326c1.039-0.885,1.559-2.211,1.559-3.98c0-1.793-0.528-3.086-1.587-3.878
		c-1.057-0.791-2.755-1.188-5.093-1.188h-4.101V225.89z"/>
	<path fill="#FFFFFF" d="M196.062,239.88l-9.203-24.047h-0.148c0.173,1.905,0.26,4.169,0.26,6.791v17.256h-2.913v-27.127h4.75
		l8.591,22.377h0.148l8.665-22.377h4.713v27.127h-3.154v-17.479c0-2.004,0.086-4.181,0.26-6.531h-0.148l-9.277,24.01H196.062z"/>
	<path fill="#FFFFFF" d="M235.416,239.88l-3.377-8.628h-10.873l-3.34,8.628h-3.191l10.725-27.238h2.653l10.669,27.238H235.416z
		 M231.056,228.413l-3.154-8.405c-0.408-1.063-0.829-2.368-1.262-3.915c-0.272,1.188-0.662,2.493-1.169,3.915l-3.191,8.405H231.056z
		"/>
	<path fill="#FFFFFF" d="M259.611,220.657c0,2.746-0.938,4.858-2.811,6.336c-1.875,1.479-4.556,2.218-8.044,2.218h-3.191v10.669
		h-3.154v-27.127h7.032C256.222,212.753,259.611,215.388,259.611,220.657z M245.565,226.502h2.839c2.795,0,4.817-0.451,6.067-1.354
		c1.249-0.902,1.874-2.35,1.874-4.342c0-1.793-0.588-3.129-1.763-4.008c-1.176-0.878-3.006-1.317-5.492-1.317h-3.525V226.502z"/>
</g>
</svg>
