<?xml version="1.0" encoding="utf-8"?>
<!-- Generator: Adobe Illustrator 16.0.0, SVG Export Plug-In . SVG Version: 6.00 Build 0)  -->
<!DOCTYPE svg PUBLIC "-//W3C//DTD SVG 1.1//EN" "http://www.w3.org/Graphics/SVG/1.1/DTD/svg11.dtd">
<svg version="1.1" id="Layer_1" xmlns="http://www.w3.org/2000/svg" xmlns:xlink="http://www.w3.org/1999/xlink" x="0px" y="0px"
	 width="310px" height="300px" viewBox="0 0 310 300" enable-background="new 0 0 310 300" xml:space="preserve">
<g>
	<rect fill="#D85B3A" width="310" height="300"/>
	<g>
		<path fill="#FFFFFF" d="M33.745,228.599v11.281h-3.154v-27.127h7.44c3.327,0,5.785,0.638,7.375,1.911
			c1.59,1.274,2.385,3.191,2.385,5.752c0,3.588-1.818,6.012-5.455,7.273l7.366,12.19h-3.729l-6.568-11.281H33.745z M33.745,225.89
			h4.323c2.227,0,3.859-0.442,4.898-1.326c1.039-0.885,1.559-2.211,1.559-3.98c0-1.793-0.529-3.086-1.586-3.878
			c-1.059-0.791-2.756-1.188-5.094-1.188h-4.101V225.89z"/>
		<path fill="#FFFFFF" d="M69.203,239.88H54.081v-27.127h15.122v2.802H57.235v8.739h11.244v2.783H57.235v9.982h11.968V239.88z"/>
		<path fill="#FFFFFF" d="M90.522,232.662c0,2.388-0.866,4.249-2.598,5.585s-4.082,2.004-7.051,2.004
			c-3.216,0-5.69-0.414-7.422-1.243v-3.043c1.113,0.471,2.325,0.842,3.637,1.113c1.312,0.272,2.61,0.408,3.896,0.408
			c2.103,0,3.687-0.399,4.75-1.196c1.063-0.799,1.596-1.908,1.596-3.331c0-0.939-0.188-1.71-0.565-2.31
			c-0.378-0.601-1.009-1.153-1.893-1.661c-0.885-0.507-2.23-1.082-4.036-1.726c-2.523-0.902-4.327-1.973-5.409-3.21
			c-1.082-1.236-1.623-2.851-1.623-4.843c0-2.09,0.785-3.754,2.356-4.991c1.571-1.236,3.649-1.855,6.234-1.855
			c2.696,0,5.177,0.495,7.44,1.484l-0.983,2.746c-2.239-0.939-4.416-1.41-6.531-1.41c-1.67,0-2.976,0.359-3.915,1.076
			c-0.94,0.718-1.41,1.714-1.41,2.987c0,0.94,0.173,1.71,0.52,2.311c0.346,0.6,0.931,1.15,1.754,1.65
			c0.822,0.502,2.08,1.056,3.775,1.661c2.845,1.015,4.803,2.104,5.873,3.266C89.987,229.298,90.522,230.807,90.522,232.662z"/>
		<path fill="#FFFFFF" d="M104.42,239.88h-3.154v-24.325h-8.591v-2.802h20.336v2.802h-8.591V239.88z"/>
		<path fill="#FFFFFF" d="M134.145,239.88l-3.377-8.628h-10.873l-3.34,8.628h-3.191l10.725-27.238h2.653l10.669,27.238H134.145z
			 M129.784,228.413l-3.154-8.405c-0.408-1.063-0.829-2.368-1.262-3.915c-0.272,1.188-0.662,2.493-1.169,3.915l-3.191,8.405H129.784
			z"/>
		<path fill="#FFFFFF" d="M161.624,212.753v17.553c0,3.093-0.935,5.523-2.802,7.292c-1.868,1.77-4.435,2.653-7.7,2.653
			s-5.792-0.891-7.579-2.672c-1.788-1.781-2.682-4.23-2.682-7.348v-17.479h3.154v17.701c0,2.264,0.618,4.002,1.855,5.214
			c1.236,1.213,3.055,1.818,5.455,1.818c2.288,0,4.051-0.609,5.288-1.827c1.237-1.219,1.855-2.966,1.855-5.242v-17.664H161.624z"/>
		<path fill="#FFFFFF" d="M171.959,228.599v11.281h-3.154v-27.127h7.44c3.327,0,5.786,0.638,7.376,1.911
			c1.589,1.274,2.384,3.191,2.384,5.752c0,3.588-1.818,6.012-5.455,7.273l7.366,12.19h-3.729l-6.568-11.281H171.959z
			 M171.959,225.89h4.323c2.227,0,3.859-0.442,4.898-1.326c1.039-0.885,1.559-2.211,1.559-3.98c0-1.793-0.528-3.086-1.587-3.878
			c-1.057-0.791-2.755-1.188-5.093-1.188h-4.101V225.89z"/>
		<path fill="#FFFFFF" d="M209.347,239.88l-3.377-8.628h-10.873l-3.34,8.628h-3.191l10.725-27.238h2.653l10.669,27.238H209.347z
			 M204.986,228.413l-3.154-8.405c-0.408-1.063-0.829-2.368-1.262-3.915c-0.272,1.188-0.662,2.493-1.169,3.915l-3.191,8.405H204.986
			z"/>
		<path fill="#FFFFFF" d="M237.531,239.88h-3.6l-14.825-22.767h-0.148c0.197,2.672,0.297,5.121,0.297,7.348v15.419h-2.913v-27.127
			h3.562l14.788,22.674h0.148c-0.025-0.334-0.081-1.407-0.167-3.219c-0.087-1.812-0.118-3.108-0.093-3.888v-15.567h2.95V239.88z"/>
		<path fill="#FFFFFF" d="M253.34,239.88h-3.154v-24.325h-8.591v-2.802h20.336v2.802h-8.591V239.88z"/>
		<path fill="#FFFFFF" d="M281.32,232.662c0,2.388-0.866,4.249-2.598,5.585c-1.732,1.336-4.082,2.004-7.051,2.004
			c-3.217,0-5.69-0.414-7.422-1.243v-3.043c1.113,0.471,2.325,0.842,3.637,1.113c1.311,0.272,2.609,0.408,3.896,0.408
			c2.103,0,3.686-0.399,4.75-1.196c1.063-0.799,1.596-1.908,1.596-3.331c0-0.939-0.188-1.71-0.566-2.31
			c-0.377-0.601-1.008-1.153-1.893-1.661c-0.884-0.507-2.229-1.082-4.035-1.726c-2.523-0.902-4.326-1.973-5.408-3.21
			c-1.083-1.236-1.624-2.851-1.624-4.843c0-2.09,0.785-3.754,2.356-4.991c1.57-1.236,3.648-1.855,6.234-1.855
			c2.696,0,5.177,0.495,7.44,1.484l-0.983,2.746c-2.239-0.939-4.416-1.41-6.531-1.41c-1.67,0-2.976,0.359-3.915,1.076
			c-0.94,0.718-1.41,1.714-1.41,2.987c0,0.94,0.173,1.71,0.52,2.311c0.346,0.6,0.931,1.15,1.753,1.65
			c0.823,0.502,2.081,1.056,3.776,1.661c2.845,1.015,4.803,2.104,5.872,3.266C280.785,229.298,281.32,230.807,281.32,232.662z"/>
	</g>
	<g>
		<rect x="121" y="63" fill="#FFFFFF" width="4" height="28"/>
		<rect x="139" y="63" fill="#FFFFFF" width="4" height="28"/>
		<rect x="130" y="63" fill="#FFFFFF" width="4" height="28"/>
		<path fill="#FFFFFF" d="M187,164c0,2.75-2.25,5-5,5l0,0c-2.75,0-5-2.25-5-5v-44c0-2.75,2.25-5,5-5l0,0c2.75,0,5,2.25,5,5V164z"/>
		<rect x="169" y="76" fill="#FFFFFF" width="18" height="48"/>
		<path fill="#FFFFFF" d="M137,164c0,2.75-2.25,5-5,5l0,0c-2.75,0-5-2.25-5-5v-60c0-2.75,2.25-5,5-5l0,0c2.75,0,5,2.25,5,5V164z"/>
		<rect x="121" y="84" fill="#FFFFFF" width="22" height="16"/>
		<path fill="#FFFFFF" d="M143,99c0,3.85-3.15,7-7,7h-8c-3.85,0-7-3.15-7-7l0,0c0-3.85,3.15-7,7-7h8C139.85,92,143,95.15,143,99
			L143,99z"/>
		<path fill="#FFFFFF" d="M187,80c0,4.95-4.05,9-9,9l0,0c-4.95,0-9-4.05-9-9v-8c0-4.95,4.05-9,9-9l0,0c4.95,0,9,4.05,9,9V80z"/>
	</g>
</g>
</svg>
