<svg xmlns="http://www.w3.org/2000/svg" xmlns:xlink="http://www.w3.org/1999/xlink" version="1.1" id="Layer_1" x="0px" y="0px" width="280px" height="100px" viewBox="0 0 280 100" enable-background="new 0 0 280 100" xml:space="preserve"><g><rect fill="none" width="280" height="100"/><g><g><path fill="#27211C" d="M112.928 32.843c0 4.014-1.052 7.048-3.155 9.103c-2.104 2.055-5.196 3.083-9.274 3.083h-5.726V21.118 h6.462c3.816 0 6.7 1 8.7 2.992S112.928 29 112.9 32.843z M111.114 32.909c0-3.423-0.871-5.999-2.608-7.728 c-1.74-1.729-4.294-2.591-7.663-2.591h-4.401v20.968h3.959C107.542 43.6 111.1 40 111.1 32.909z"/><path fill="#27211C" d="M132.329 45.029h-13.068V21.118h13.068v1.537H120.93v9.043h10.762v1.538H120.93v10.256h11.399V45.029z"/><path fill="#27211C" d="M152.712 21.118h1.815l-8.946 23.912h-1.472l-8.914-23.912h1.783l6.019 16.3 c0.916 2.5 1.5 4.3 1.8 5.528c0.218-0.818 0.649-2.087 1.293-3.81L152.712 21.118z"/><path fill="#27211C" d="M171.818 45.029H158.75V21.118h13.068v1.537h-11.4v9.043h10.763v1.538h-10.763v10.256h11.4V45.029z"/><path fill="#27211C" d="M178.071 45.029V21.118h1.667v22.342h11.399v1.57H178.071z"/><path fill="#27211C" d="M216.198 33.04c0 3.794-0.948 6.796-2.845 9.004c-1.897 2.208-4.515 3.313-7.852 3.3 c-3.325 0-5.938-1.105-7.834-3.313s-2.847-5.22-2.847-9.037c0-3.804 0.958-6.801 2.87-8.987c1.914-2.185 4.529-3.28 7.843-3.28 c3.337 0 5.9 1.1 7.8 3.296S216.198 29.2 216.2 33.04z M196.637 33.04c0 3.4 0.8 6.1 2.3 7.9 c1.525 1.9 3.7 2.8 6.6 2.806c2.879 0 5.078-0.928 6.6-2.781c1.52-1.854 2.281-4.509 2.281-7.966 c0-3.445-0.762-6.087-2.281-7.924c-1.521-1.836-3.71-2.755-6.567-2.755c-2.846 0-5.04 0.926-6.582 2.8 C197.408 27 196.6 29.6 196.6 33.04z"/><path fill="#27211C" d="M236.924 27.987c0 2.311-0.785 4.082-2.355 5.314c-1.57 1.233-3.794 1.85-6.674 1.85h-3.695v9.878h-1.668 V21.118h5.854C234.077 21.1 236.9 23.4 236.9 27.987z M224.199 33.711h3.287c2.693 0 4.64-0.445 5.84-1.333 c1.198-0.888 1.798-2.33 1.798-4.325c0-1.843-0.567-3.208-1.7-4.098c-1.134-0.889-2.891-1.332-5.267-1.332h-3.958V33.711z"/><path fill="#27211C" d="M256.031 45.029h-13.069V21.118h13.069v1.537h-11.4v9.043h10.762v1.538h-10.762v10.256h11.4V45.029z"/><path fill="#27211C" d="M263.949 34.61v10.419h-1.668V21.118h5.691c2.965 0 5.2 0.5 6.6 1.6 c1.418 1.1 2.1 2.7 2.1 4.947c0 1.603-0.422 2.955-1.268 4.056c-0.845 1.103-2.13 1.893-3.852 2.373l6.493 10.893h-1.996 l-6.166-10.419H263.949z M263.949 33.17h4.563c2.017 0 3.582-0.449 4.694-1.348c1.111-0.9 1.668-2.227 1.668-3.983 c0-1.821-0.545-3.146-1.637-3.974c-1.09-0.829-2.866-1.243-5.331-1.243h-3.958V33.17z"/></g><path fill="#27211C" d="M115.358 63.854c0 4.549-1.193 7.991-3.579 10.321c-2.387 2.33-5.892 3.495-10.514 3.495h-6.493V50.559 h7.325c4.328 0 7.6 1.1 9.9 3.395C114.229 56.2 115.4 59.5 115.4 63.854z M113.299 63.9 c0-3.883-0.984-6.804-2.957-8.763c-1.972-1.958-4.869-2.94-8.688-2.94h-4.988v23.775h4.488 C109.252 76 113.3 72 113.3 63.93z"/><path fill="#27211C" d="M135.859 68.102h-11.015l-3.784 9.569h-2.096l10.904-27.223h1.207l10.682 27.223h-2.134L135.859 68.102z M125.531 66.395h9.698l-3.69-9.772c-0.31-0.766-0.681-1.831-1.113-3.188c-0.333 1.186-0.698 2.262-1.092 3.227L125.531 66.395z"/><path fill="#27211C" d="M153.043 65.393l7.937-14.834h2.039l-9.03 16.634v10.479h-1.947v-10.33l-9.068-16.782h2.17L153.043 65.4 z"/><path fill="#27211C" d="M183.037 70.678c0 2.263-0.83 4.056-2.494 5.378c-1.663 1.323-3.872 1.985-6.63 2 c-3.315 0-5.853-0.365-7.622-1.093v-1.895c1.954 0.8 4.4 1.2 7.5 1.243c2.227 0 3.991-0.509 5.294-1.527 c1.308-1.021 1.957-2.36 1.957-4.017c0-1.026-0.216-1.877-0.648-2.549c-0.434-0.674-1.138-1.291-2.114-1.848 c-0.976-0.556-2.41-1.155-4.302-1.797c-2.771-0.953-4.684-1.981-5.74-3.087c-1.057-1.108-1.585-2.58-1.585-4.425 c0-2.026 0.794-3.679 2.384-4.958c1.586-1.281 3.63-1.92 6.129-1.92c2.546 0 4.9 0.5 7.2 1.445l-0.688 1.6 c-2.249-0.938-4.4-1.407-6.451-1.407c-2.002 0-3.599 0.464-4.785 1.39c-1.188 0.928-1.781 2.188-1.781 3.8 c0 1 0.2 1.8 0.5 2.468c0.363 0.6 1 1.2 1.8 1.732c0.828 0.5 2.2 1.1 4.3 1.8 c2.115 0.7 3.7 1.4 4.8 2.121c1.064 0.7 1.8 1.5 2.3 2.338C182.793 68.4 183 69.4 183 70.678z"/><path fill="#80C342" d="M208.897 77.671h-18.954v-3.986l6.808-6.883c2.015-2.063 3.331-3.493 3.95-4.292 c0.617-0.798 1.062-1.535 1.336-2.215c0.271-0.681 0.406-1.386 0.406-2.115c0-1.089-0.299-1.897-0.9-2.429 c-0.599-0.53-1.397-0.796-2.398-0.796c-1.053 0-2.071 0.24-3.062 0.721c-0.989 0.483-2.021 1.17-3.098 2.06l-3.114-3.69 c1.336-1.137 2.441-1.941 3.318-2.412c0.878-0.467 1.837-0.828 2.875-1.084c1.038-0.253 2.201-0.379 3.486-0.379 c1.693 0 3.2 0.3 4.5 0.928c1.297 0.6 2.3 1.5 3 2.594c0.717 1.1 1.1 2.4 1.1 3.8 c0 1.249-0.218 2.421-0.657 3.515c-0.439 1.095-1.118 2.217-2.039 3.367c-0.922 1.149-2.544 2.787-4.869 4.911l-3.486 3.285v0.259 h11.813V77.671z"/><path fill="#80C342" d="M231.641 64.115c0 4.733-0.775 8.238-2.326 10.514c-1.552 2.274-3.94 3.412-7.168 3.4 c-3.127 0-5.485-1.176-7.074-3.523c-1.588-2.348-2.381-5.814-2.381-10.402c0-4.783 0.77-8.312 2.316-10.58 c1.546-2.268 3.925-3.402 7.139-3.402c3.129 0 5.5 1.2 7.1 3.559C230.842 56.1 231.6 59.5 231.6 64.115z M218.384 64.115c0 3.3 0.3 5.7 0.9 7.149c0.574 1.4 1.5 2.2 2.9 2.158c1.336 0 2.3-0.729 2.894-2.189 c0.595-1.456 0.891-3.829 0.891-7.118c0-3.327-0.3-5.717-0.9-7.171c-0.599-1.448-1.561-2.175-2.884-2.175 c-1.345 0-2.311 0.727-2.892 2.175C218.674 58.4 218.4 60.8 218.4 64.115z"/><path fill="#80C342" d="M249.901 77.671h-5.731V61.98l0.055-2.577l0.093-2.818c-0.95 0.952-1.612 1.576-1.981 1.873l-3.117 2.5 l-2.762-3.449l8.734-6.953h4.71V77.671z"/><path fill="#80C342" d="M278.188 72.05h-3.263v5.621h-5.6V72.05h-11.572v-3.986l11.887-17.505h5.285v17.042h3.263V72.05z M269.326 67.601V63c0-0.764 0.03-1.878 0.092-3.336c0.062-1.459 0.112-2.305 0.15-2.54h-0.15 c-0.457 1.012-1.008 2.002-1.65 2.965l-4.971 7.512H269.326z"/><g><path fill="#80C342" d="M76.349 76.289c0 5.956-3.696 11.474-8.372 12.287L0 99.999v-87.61C0 4.4 6.358-1.052 13.8 0.2 l62.574 10.258V76.289z"/><path fill="#FFFFFF" d="M55.405 21.887l5.49 0.59v9.635l6.178 0.437v6.04l-6.178-0.282v22.087c0 1.9 0.2 3.2 0.6 3.7 c0.386 0.5 1 0.8 1.8 0.76c0.076 0 0.156-0.003 0.235-0.009c1.217-0.07 2.538-0.444 3.979-1.099v5.552 c-2.449 1.074-4.852 1.715-7.21 1.914c-0.343 0.028-0.671 0.043-0.989 0.043c-2.137 0-3.771-0.621-4.886-1.875 c-1.3-1.456-1.95-3.789-1.95-6.993V37.915l-2.967-0.134v-6.476l3.617 0.261L55.405 21.887z"/><path fill="#FFFFFF" d="M36.686 63.114c1.122-2.882 1.676-8.536 1.676-16.976c0-7.576-0.547-12.783-1.663-15.642 c-1.113-2.872-2.781-4.425-5.014-4.62c-0.171-0.016-0.34-0.023-0.504-0.023c-2.07 0-3.661 1.208-4.772 3.6 C25.211 32.1 24.6 37.6 24.6 45.905c0 8 0.6 13.7 1.8 17.042c1.123 3.2 2.8 4.8 5 4.8 c0.098 0 0.195-0.003 0.294-0.008C33.895 67.6 35.6 66 36.7 63.1 M45.254 64.902c-1.96 4.628-4.952 7.657-9.05 9.1 c0.414 2.1 1 3.5 1.9 4.298c0.644 0.6 1.6 0.9 3 0.869c0.385 0 0.797-0.025 1.234-0.076v6.258l-2.842 0.4 c-0.839 0.107-1.631 0.166-2.384 0.166c-2.488 0-4.502-0.606-6.017-1.827c-2.005-1.61-3.484-4.719-4.432-9.311 c-4.354-0.929-7.751-3.698-10.102-8.348c-2.385-4.717-3.601-11.623-3.601-20.657c0-9.738 1.662-16.926 4.932-21.484 c2.76-3.846 6.607-5.739 11.453-5.739c0.773 0 1.6 0 2.4 0.146c5.699 0.7 9.8 3.3 12.5 8 c2.639 4.6 3.9 11.1 3.9 19.668C48.136 54.2 47.2 60.3 45.3 64.9"/></g></g></g></svg>

