<?xml version="1.0" encoding="utf-8"?>
<!-- Generator: Adobe Illustrator 16.0.0, SVG Export Plug-In . SVG Version: 6.00 Build 0)  -->
<!DOCTYPE svg PUBLIC "-//W3C//DTD SVG 1.1//EN" "http://www.w3.org/Graphics/SVG/1.1/DTD/svg11.dtd">
<svg version="1.1" id="Layer_1" xmlns="http://www.w3.org/2000/svg" xmlns:xlink="http://www.w3.org/1999/xlink" x="0px" y="0px"
	 width="286px" height="100px" viewBox="0 0 286 100" enable-background="new 0 0 286 100" xml:space="preserve">
<g>
	<rect fill="none" width="286" height="100"/>
	<g>
		<g>
			<path fill="#27211C" d="M118.928,32.843c0,4.014-1.052,7.048-3.155,9.103c-2.104,2.055-5.196,3.083-9.274,3.083h-5.726V21.118
				h6.462c3.816,0,6.719,0.996,8.709,2.992S118.928,29.016,118.928,32.843z M117.114,32.909c0-3.423-0.871-5.999-2.608-7.728
				c-1.74-1.729-4.294-2.591-7.663-2.591h-4.401v20.968h3.959C113.542,43.558,117.114,40.007,117.114,32.909z"/>
			<path fill="#27211C" d="M138.329,45.029h-13.068V21.118h13.068v1.537H126.93v9.043h10.762v1.538H126.93v10.256h11.399V45.029z"/>
			<path fill="#27211C" d="M158.712,21.118h1.815l-8.946,23.912h-1.472l-8.914-23.912h1.783l6.019,16.272
				c0.916,2.454,1.533,4.297,1.848,5.528c0.218-0.818,0.649-2.087,1.293-3.81L158.712,21.118z"/>
			<path fill="#27211C" d="M177.818,45.029H164.75V21.118h13.068v1.537h-11.4v9.043h10.763v1.538h-10.763v10.256h11.4V45.029z"/>
			<path fill="#27211C" d="M184.071,45.029V21.118h1.667v22.342h11.399v1.57H184.071z"/>
			<path fill="#27211C" d="M222.198,33.04c0,3.794-0.948,6.796-2.845,9.004c-1.897,2.208-4.515,3.313-7.852,3.313
				c-3.325,0-5.938-1.105-7.834-3.313s-2.847-5.22-2.847-9.037c0-3.804,0.958-6.801,2.87-8.987c1.914-2.185,4.529-3.28,7.843-3.28
				c3.337,0,5.948,1.1,7.835,3.296S222.198,29.235,222.198,33.04z M202.637,33.04c0,3.424,0.764,6.071,2.291,7.941
				c1.525,1.87,3.717,2.806,6.574,2.806c2.879,0,5.078-0.928,6.6-2.781c1.52-1.854,2.281-4.509,2.281-7.966
				c0-3.445-0.762-6.087-2.281-7.924c-1.521-1.836-3.71-2.755-6.567-2.755c-2.846,0-5.04,0.926-6.582,2.78
				C203.408,26.995,202.637,29.627,202.637,33.04z"/>
			<path fill="#27211C" d="M242.924,27.987c0,2.311-0.785,4.082-2.355,5.314c-1.57,1.233-3.794,1.85-6.674,1.85h-3.695v9.878h-1.668
				V21.118h5.854C240.077,21.118,242.924,23.407,242.924,27.987z M230.199,33.711h3.287c2.693,0,4.64-0.445,5.84-1.333
				c1.198-0.888,1.798-2.33,1.798-4.325c0-1.843-0.567-3.208-1.7-4.098c-1.134-0.889-2.891-1.332-5.267-1.332h-3.958V33.711z"/>
			<path fill="#27211C" d="M262.031,45.029h-13.069V21.118h13.069v1.537h-11.4v9.043h10.762v1.538h-10.762v10.256h11.4V45.029z"/>
			<path fill="#27211C" d="M269.949,34.61v10.419h-1.668V21.118h5.691c2.965,0,5.157,0.547,6.575,1.643
				c1.418,1.096,2.126,2.745,2.126,4.947c0,1.603-0.422,2.955-1.268,4.056c-0.845,1.103-2.13,1.893-3.852,2.373l6.493,10.893h-1.996
				l-6.166-10.419H269.949z M269.949,33.17h4.563c2.017,0,3.582-0.449,4.694-1.348c1.111-0.9,1.668-2.227,1.668-3.983
				c0-1.821-0.545-3.146-1.637-3.974c-1.09-0.829-2.866-1.243-5.331-1.243h-3.958V33.17z"/>
		</g>
		<path fill="#27211C" d="M121.358,63.854c0,4.549-1.193,7.991-3.579,10.321c-2.387,2.33-5.892,3.495-10.514,3.495h-6.493V50.559
			h7.325c4.328,0,7.62,1.132,9.877,3.394C120.229,56.215,121.358,59.517,121.358,63.854z M119.299,63.93
			c0-3.883-0.984-6.804-2.957-8.763c-1.972-1.958-4.869-2.94-8.688-2.94h-4.988v23.775h4.488
			C115.252,76.002,119.299,71.979,119.299,63.93z"/>
		<path fill="#27211C" d="M141.859,68.102h-11.015l-3.784,9.569h-2.096l10.904-27.223h1.207l10.682,27.223h-2.134L141.859,68.102z
			 M131.531,66.395h9.698l-3.69-9.772c-0.31-0.766-0.681-1.831-1.113-3.188c-0.333,1.186-0.698,2.262-1.092,3.227L131.531,66.395z"
			/>
		<path fill="#27211C" d="M159.043,65.393l7.937-14.833h2.039l-9.03,16.633v10.479h-1.947v-10.33l-9.068-16.782h2.17L159.043,65.393
			z"/>
		<path fill="#27211C" d="M189.037,70.678c0,2.263-0.83,4.056-2.494,5.378c-1.663,1.323-3.872,1.985-6.63,1.985
			c-3.315,0-5.853-0.365-7.622-1.093v-1.895c1.954,0.83,4.447,1.243,7.474,1.243c2.227,0,3.991-0.509,5.294-1.527
			c1.308-1.021,1.957-2.36,1.957-4.017c0-1.026-0.216-1.877-0.648-2.549c-0.434-0.674-1.138-1.291-2.114-1.848
			c-0.976-0.556-2.41-1.155-4.302-1.797c-2.771-0.953-4.684-1.981-5.74-3.087c-1.057-1.108-1.585-2.58-1.585-4.425
			c0-2.026,0.794-3.679,2.384-4.958c1.586-1.282,3.63-1.919,6.129-1.919c2.546,0,4.938,0.48,7.176,1.445l-0.688,1.631
			c-2.249-0.938-4.4-1.407-6.451-1.407c-2.002,0-3.599,0.464-4.785,1.39c-1.188,0.928-1.781,2.188-1.781,3.782
			c0,1.002,0.182,1.824,0.549,2.468c0.363,0.644,0.961,1.221,1.788,1.732c0.828,0.515,2.249,1.127,4.265,1.848
			c2.115,0.729,3.703,1.435,4.766,2.121c1.064,0.687,1.84,1.465,2.328,2.338C188.793,68.389,189.037,69.442,189.037,70.678z"/>
		<path fill="#80C342" d="M214.897,77.671h-18.954v-3.986l6.808-6.883c2.015-2.063,3.331-3.493,3.95-4.292
			c0.617-0.798,1.062-1.535,1.336-2.215c0.271-0.681,0.406-1.386,0.406-2.115c0-1.089-0.299-1.897-0.9-2.429
			c-0.599-0.53-1.397-0.796-2.398-0.796c-1.053,0-2.071,0.24-3.062,0.721c-0.989,0.483-2.021,1.17-3.098,2.06l-3.114-3.69
			c1.336-1.137,2.441-1.941,3.318-2.412c0.878-0.467,1.837-0.828,2.875-1.084c1.038-0.253,2.201-0.378,3.486-0.378
			c1.693,0,3.189,0.307,4.489,0.927c1.297,0.617,2.304,1.482,3.021,2.594c0.717,1.111,1.074,2.388,1.074,3.82
			c0,1.249-0.218,2.421-0.657,3.515c-0.439,1.095-1.118,2.217-2.039,3.367c-0.922,1.149-2.544,2.787-4.869,4.911l-3.486,3.285v0.259
			h11.813V77.671z"/>
		<path fill="#80C342" d="M237.641,64.115c0,4.733-0.775,8.238-2.326,10.514c-1.552,2.274-3.94,3.412-7.168,3.412
			c-3.127,0-5.485-1.176-7.074-3.523c-1.588-2.348-2.381-5.814-2.381-10.402c0-4.783,0.77-8.312,2.316-10.58
			c1.546-2.268,3.925-3.402,7.139-3.402c3.129,0,5.493,1.188,7.094,3.559C236.842,56.065,237.641,59.54,237.641,64.115z
			 M224.384,64.115c0,3.324,0.287,5.709,0.862,7.149c0.574,1.438,1.542,2.158,2.9,2.158c1.336,0,2.3-0.729,2.894-2.189
			c0.595-1.456,0.891-3.829,0.891-7.118c0-3.327-0.3-5.717-0.9-7.171c-0.599-1.448-1.561-2.175-2.884-2.175
			c-1.345,0-2.311,0.727-2.892,2.175C224.674,58.398,224.384,60.788,224.384,64.115z"/>
		<path fill="#80C342" d="M255.901,77.671h-5.731V61.98l0.055-2.577l0.093-2.818c-0.95,0.952-1.612,1.576-1.981,1.873l-3.117,2.503
			l-2.762-3.449l8.734-6.953h4.71V77.671z"/>
		<path fill="#80C342" d="M284.188,72.05h-3.263v5.621h-5.6V72.05h-11.572v-3.986l11.887-17.504h5.285v17.042h3.263V72.05z
			 M275.326,67.601V63c0-0.764,0.03-1.878,0.092-3.336c0.062-1.459,0.112-2.305,0.15-2.54h-0.15
			c-0.457,1.012-1.008,2.002-1.65,2.965l-4.971,7.512H275.326z"/>
		<path fill="#006325" d="M20.538,0.169c-1.023-0.168-2.023-0.208-2.993-0.134h-0.002c0,0-6.614,0.45-6.918,0.475
			C4.585,0.993,0,5.959,0,12.817v80.877l6.764,6.305L74.74,88.576c4.676-0.813,8.372-6.331,8.372-12.29V10.429L20.538,0.169z"/>
		<path fill="#80C342" d="M83.112,76.289c0,5.956-3.696,11.474-8.372,12.287L6.764,99.999v-87.61
			c0-7.969,6.358-13.441,13.774-12.218l62.574,10.258V76.289z"/>
		<path fill="#FFFFFF" d="M62.169,21.887l5.49,0.59v9.635l6.178,0.437v6.04l-6.178-0.282v22.087c0,1.921,0.212,3.156,0.637,3.712
			c0.386,0.506,0.977,0.76,1.771,0.76c0.076,0,0.156-0.003,0.235-0.009c1.217-0.07,2.538-0.444,3.979-1.099v5.552
			c-2.449,1.074-4.852,1.715-7.21,1.914c-0.343,0.028-0.671,0.043-0.989,0.043c-2.137,0-3.771-0.621-4.886-1.875
			c-1.3-1.456-1.95-3.789-1.95-6.993V37.915l-2.967-0.134v-6.476l3.617,0.261L62.169,21.887z"/>
		<polygon fill="#006325" points="67.659,38.438 70.971,38.59 73.838,38.59 67.659,38.306 		"/>
		<path fill="#006325" d="M68.945,64.637c0.312,0.154,0.682,0.229,1.121,0.229c0.076,0,0.156-0.003,0.235-0.009
			c1.217-0.07,2.539-0.444,3.979-1.099h-2.866C70.545,64.152,69.73,64.45,68.945,64.637"/>
		<path fill="#006325" d="M61.195,69.392c-1.3-1.456-1.95-3.789-1.95-6.993V37.915l-2.967-0.134v-6.476h-2.866v1.447
			c0.413,1.559,0.74,3.25,0.981,5.074l1.986,0.089v24.484c0,3.204,0.651,5.537,1.949,6.993c1.114,1.254,2.747,1.875,4.884,1.875
			h2.868C63.944,71.267,62.311,70.646,61.195,69.392 M62.169,21.887h-2.865l-2.226,9.477l2.817,0.203L62.169,21.887z"/>
		<path fill="#07601F" d="M47.804,79.128c0.382,0,0.795-0.025,1.234-0.076h-2.307C47.054,79.103,47.423,79.128,47.804,79.128"/>
		<path fill="#FFFFFF" d="M43.449,63.114c1.122-2.882,1.676-8.536,1.676-16.976c0-7.576-0.547-12.783-1.663-15.642
			c-1.113-2.872-2.781-4.425-5.014-4.62c-0.171-0.016-0.34-0.023-0.504-0.023c-2.07,0-3.661,1.208-4.772,3.633
			c-1.197,2.641-1.809,8.124-1.809,16.418c0,8.015,0.593,13.701,1.782,17.042c1.123,3.18,2.801,4.755,5.009,4.755
			c0.098,0,0.195-0.003,0.294-0.008C40.658,67.553,42.322,66.024,43.449,63.114 M52.018,64.902c-1.96,4.628-4.952,7.657-9.05,9.059
			c0.414,2.119,1.039,3.546,1.87,4.298c0.644,0.579,1.636,0.869,2.966,0.869c0.385,0,0.797-0.025,1.234-0.076v6.258l-2.842,0.373
			c-0.839,0.107-1.631,0.166-2.384,0.166c-2.488,0-4.502-0.606-6.017-1.827c-2.005-1.61-3.484-4.719-4.432-9.311
			c-4.354-0.929-7.751-3.698-10.102-8.348c-2.385-4.717-3.601-11.623-3.601-20.657c0-9.738,1.662-16.926,4.932-21.484
			c2.76-3.846,6.607-5.739,11.453-5.739c0.773,0,1.575,0.049,2.401,0.146c5.699,0.656,9.828,3.346,12.518,8.002
			c2.639,4.559,3.934,11.091,3.934,19.668C54.899,54.158,53.946,60.339,52.018,64.902"/>
		<path fill="#006325" d="M40.448,30.497c1.113,2.859,1.66,8.066,1.66,15.642c0,8.436-0.553,14.093-1.674,16.976
			c-0.901,2.327-2.157,3.768-3.746,4.325c0.458,0.177,0.949,0.262,1.466,0.262c0.098,0,0.195-0.003,0.294-0.008
			c2.21-0.141,3.874-1.669,4.999-4.579c1.124-2.883,1.678-8.54,1.678-16.976c0-7.576-0.549-12.783-1.663-15.642
			c-1.113-2.872-2.781-4.425-5.014-4.62c-0.171-0.016-0.34-0.023-0.504-0.023c-0.52,0-1.01,0.076-1.469,0.228h-0.003
			C38.189,26.615,39.514,28.09,40.448,30.497 M39.329,84.97c-0.053-0.021-0.107-0.047-0.161-0.077c-0.004,0-0.011-0.003-0.016-0.008
			c-0.047-0.022-0.098-0.051-0.145-0.073c-0.012-0.006-0.019-0.01-0.031-0.012c-0.041-0.028-0.087-0.051-0.131-0.073
			c-0.015-0.008-0.027-0.016-0.04-0.023c-0.04-0.022-0.078-0.046-0.115-0.064c-0.021-0.013-0.035-0.023-0.055-0.036
			c-0.034-0.018-0.069-0.037-0.103-0.061c-0.021-0.015-0.045-0.027-0.066-0.043c-0.028-0.017-0.058-0.032-0.084-0.052
			c-0.027-0.018-0.056-0.036-0.083-0.056c-0.022-0.016-0.044-0.03-0.068-0.043c-0.032-0.022-0.062-0.048-0.094-0.068
			c-0.018-0.012-0.036-0.024-0.055-0.037c-0.034-0.025-0.072-0.053-0.108-0.08c-0.012-0.01-0.024-0.019-0.037-0.028
			c-0.045-0.038-0.096-0.076-0.143-0.11c-2.004-1.613-3.483-4.722-4.431-9.313c-4.354-0.929-7.751-3.698-10.102-8.345
			c-2.385-4.72-3.601-11.626-3.601-20.66c0-9.738,1.662-16.928,4.932-21.484c2.76-3.846,6.608-5.739,11.453-5.739h-3.029
			c-4.837,0.006-8.684,1.896-11.44,5.739c-3.269,4.556-4.93,11.746-4.93,21.484c0,9.034,1.211,15.94,3.599,20.66
			c2.352,4.646,5.747,7.416,10.103,8.345c0.946,4.592,2.424,7.7,4.43,9.313c1.515,1.218,3.529,1.824,6.021,1.824
			c0.045,0,0.093-0.003,0.141-0.003h2.64c-1.623-0.027-3.044-0.316-4.247-0.873C39.332,84.973,39.331,84.973,39.329,84.97"/>
	</g>
</g>
</svg>
