<?xml version="1.0" encoding="utf-8"?>
<!-- Generator: Adobe Illustrator 16.0.0, SVG Export Plug-In . SVG Version: 6.00 Build 0)  -->
<!DOCTYPE svg PUBLIC "-//W3C//DTD SVG 1.1//EN" "http://www.w3.org/Graphics/SVG/1.1/DTD/svg11.dtd">
<svg version="1.1" id="Layer_1" xmlns="http://www.w3.org/2000/svg" xmlns:xlink="http://www.w3.org/1999/xlink" x="0px" y="0px"
	 width="42px" height="42px" viewBox="0 0 42 42" enable-background="new 0 0 42 42" xml:space="preserve">
<g>
	<rect fill="none" width="42" height="42"/>
	<g>
		<path fill="#808080" d="M29.368,23.887c0.237-0.928,0.401-1.886,0.401-2.887c0-6.49-5.279-11.769-11.77-11.769
			C11.508,9.231,6.23,14.51,6.23,21c0,6.49,5.277,11.77,11.77,11.77c2.475,0,4.766-0.777,6.664-2.086l2.265,4.762
			C24.329,37.055,21.279,38,18,38C8.616,38,1,30.389,1,21S8.616,4,18,4s17,7.611,17,17c0,1.142-0.117,2.256-0.332,3.336
			L29.368,23.887z"/>
		<polygon fill="#808080" points="23.088,18.99 40.604,13.676 35.639,28.846 		"/>
	</g>
</g>
</svg>
