<svg xmlns:dc="http://purl.org/dc/elements/1.1/" xmlns:cc="http://creativecommons.org/ns#" xmlns:rdf="http://www.w3.org/1999/02/22-rdf-syntax-ns#" xmlns:svg="http://www.w3.org/2000/svg" xmlns="http://www.w3.org/2000/svg" xmlns:sodipodi="http://sodipodi.sourceforge.net/DTD/sodipodi-0.dtd" xmlns:inkscape="http://www.inkscape.org/namespaces/inkscape" version="1.1" id="Layer_1" x="0px" y="0px" width="42px" height="42px" viewBox="0 0 42 42" enable-background="new 0 0 42 42" xml:space="preserve" inkscape:version="0.48.4 r9939">
  <metadata id="metadata3090">
    <rdf:RDF>
      <cc:Work rdf:about="">
        <dc:format>image/svg+xml</dc:format>
        <dc:type rdf:resource="http://purl.org/dc/dcmitype/StillImage"/>
        <dc:title/>
      </cc:Work>
    </rdf:RDF>
  </metadata>
  <defs id="defs3088"/>
  <g id="g3076" transform="matrix(0.86,0,0,0.86,5.747,3.013)">
    <rect width="42" height="42" id="rect3078" x="0" y="0" style="fill:none"/>
    <g id="g3080">
      <path d="M 29.4 23.9 C 29.6 23 29.8 22 29.8 21 29.8 14.5 24.5 9.2 18 9.2 11.5 9.2 6.2 14.5 6.2 21 c 0 6.5 5.3 11.8 11.8 11.8 2.5 0 4.8 -0.8 6.7 -2.1 l 2.3 4.8 C 24.3 37.1 21.3 38 18 38 8.6 38 1 30.4 1 21 1 11.6 8.6 4 18 4 c 9.4 0 17 7.6 17 17 0 1.1 -0.1 2.3 -0.3 3.3 l -5.3 -0.4 z" id="path3082" inkscape:connector-curvature="0" style="fill:#808080"/>
      <polygon points="35.6,28.8 23.1,19 40.6,13.7" id="polygon3084" style="fill:#808080"/>
    </g>
  </g>
</svg>
