<?xml version="1.0" encoding="utf-8"?>
<!-- Generator: Adobe Illustrator 16.0.0, SVG Export Plug-In . SVG Version: 6.00 Build 0)  -->
<!DOCTYPE svg PUBLIC "-//W3C//DTD SVG 1.1//EN" "http://www.w3.org/Graphics/SVG/1.1/DTD/svg11.dtd">
<svg version="1.1" id="Layer_1" xmlns="http://www.w3.org/2000/svg" xmlns:xlink="http://www.w3.org/1999/xlink" x="0px" y="0px"
	 width="1020px" height="1166px" viewBox="0 0 1020 1166" enable-background="new 0 0 1020 1166" xml:space="preserve">
<g>
	
		<rect x="17.288" y="164.237" fill="none" stroke="#000000" stroke-width="4" stroke-miterlimit="10" width="985.424" height="985.424"/>
	<g>
		<path fill="none" stroke="#000000" stroke-width="4" stroke-miterlimit="10" d="M69.123,339.423c0,0-33.475-95.025,30.845-130.29
			c33.512-18.372,74.192-10.598,95.388,10.599c31.8,31.795,28.769,88.525-21.196,105.987c-22.37,7.82-56.625-3.141-61.538-33.011
			c-3.119-18.972,3.089-34.18,18.006-42.76c29.87-17.188,54.422,8.567,48.694,35.395"/>
		
			<line fill="none" stroke="#000000" stroke-width="4" stroke-miterlimit="10" x1="68.516" y1="337.578" x2="121.591" y2="312.063"/>
		<line fill="none" stroke="#000000" stroke-width="4" stroke-miterlimit="10" x1="60.412" y1="301.36" x2="112.622" y2="292.708"/>
		<line fill="none" stroke="#000000" stroke-width="4" stroke-miterlimit="10" x1="62.64" y1="269.118" x2="113.124" y2="272.689"/>
		<line fill="none" stroke="#000000" stroke-width="4" stroke-miterlimit="10" x1="73.846" y1="233.3" x2="122.996" y2="255.62"/>
		
			<line fill="none" stroke="#000000" stroke-width="4" stroke-miterlimit="10" x1="107.966" y1="205.297" x2="132.831" y2="248.758"/>
		
			<line fill="none" stroke="#000000" stroke-width="4" stroke-miterlimit="10" x1="140.385" y1="198.812" x2="144.81" y2="244.781"/>
		
			<line fill="none" stroke="#000000" stroke-width="4" stroke-miterlimit="10" x1="177.499" y1="207.171" x2="158.088" y2="245.617"/>
		
			<line fill="none" stroke="#000000" stroke-width="4" stroke-miterlimit="10" x1="200.996" y1="226.083" x2="171.399" y2="254.101"/>
		
			<line fill="none" stroke="#000000" stroke-width="4" stroke-miterlimit="10" x1="216.102" y1="255.62" x2="178.001" y2="265.181"/>
		
			<line fill="none" stroke="#000000" stroke-width="4" stroke-miterlimit="10" x1="179.692" y1="283.328" x2="212.753" y2="288.943"/>
	</g>
	<g>
		<path fill="none" stroke="#000000" stroke-width="4" stroke-miterlimit="10" d="M942.136,339.423c0,0,33.475-95.025-30.845-130.29
			c-33.513-18.372-74.192-10.598-95.389,10.599c-31.799,31.795-28.769,88.525,21.196,105.987c22.37,7.82,56.625-3.141,61.538-33.011
			c3.119-18.972-3.09-34.18-18.006-42.76c-29.87-17.188-54.422,8.567-48.694,35.395"/>
		
			<line fill="none" stroke="#000000" stroke-width="4" stroke-miterlimit="10" x1="942.849" y1="337.241" x2="889.753" y2="311.965"/>
		<line fill="none" stroke="#000000" stroke-width="4" stroke-miterlimit="10" x1="950.848" y1="301.36" x2="900.05" y2="291.383"/>
		
			<line fill="none" stroke="#000000" stroke-width="4" stroke-miterlimit="10" x1="948.619" y1="269.118" x2="898.135" y2="272.689"/>
		
			<line fill="none" stroke="#000000" stroke-width="4" stroke-miterlimit="10" x1="938.132" y1="234.435" x2="888.263" y2="255.62"/>
		
			<line fill="none" stroke="#000000" stroke-width="4" stroke-miterlimit="10" x1="903.292" y1="205.297" x2="878.428" y2="248.758"/>
		
			<line fill="none" stroke="#000000" stroke-width="4" stroke-miterlimit="10" x1="870.059" y1="198.812" x2="866.449" y2="244.781"/>
		
			<line fill="none" stroke="#000000" stroke-width="4" stroke-miterlimit="10" x1="833.76" y1="207.171" x2="853.171" y2="245.617"/>
		
			<line fill="none" stroke="#000000" stroke-width="4" stroke-miterlimit="10" x1="810.025" y1="226.395" x2="839.859" y2="254.101"/>
		
			<line fill="none" stroke="#000000" stroke-width="4" stroke-miterlimit="10" x1="795.157" y1="255.62" x2="833.258" y2="265.181"/>
		
			<line fill="none" stroke="#000000" stroke-width="4" stroke-miterlimit="10" x1="831.565" y1="283.328" x2="798.887" y2="289.99"/>
	</g>
	<path fill="none" stroke="#000000" stroke-width="4" stroke-miterlimit="10" d="M825.517,857.755
		c-69.013,103.05-186.501,170.89-319.839,170.89c-135.811,0-255.182-70.386-323.629-176.664"/>
	<path fill="none" stroke="#000000" stroke-width="4" stroke-miterlimit="10" d="M886.109,586.716
		c2.786,18.686,4.229,37.81,4.229,57.268c0,61.851-14.595,120.291-40.536,172.062"/>
	<path fill="none" stroke="#000000" stroke-width="4" stroke-miterlimit="10" d="M695.041,309.085
		c87.458,49.56,153.584,132.387,181.184,231.287"/>
	<path fill="none" stroke="#000000" stroke-width="4" stroke-miterlimit="10" d="M355.74,289.64
		c46.078-19.521,96.748-30.317,149.938-30.317c51.375,0,100.395,10.07,145.197,28.347"/>
	<path fill="none" stroke="#000000" stroke-width="4" stroke-miterlimit="10" d="M134.798,541.562
		c27.093-98.326,92.244-180.875,178.608-230.815"/>
	<path fill="none" stroke="#000000" stroke-width="4" stroke-miterlimit="10" d="M159.315,811.5
		c-24.539-50.637-38.299-107.469-38.299-167.517c0-19.918,1.512-39.481,4.432-58.584"/>
	<path fill="none" stroke="#000000" stroke-width="4" stroke-miterlimit="10" d="M212.826,783.141
		c-20.069-42.165-31.301-89.349-31.301-139.157c0-15.145,1.038-30.052,3.048-44.644"/>
	<path fill="none" stroke="#000000" stroke-width="4" stroke-miterlimit="10" d="M776.084,822.803
		c-58.031,87.585-157.468,145.333-270.406,145.333c-113.618,0-213.582-58.453-271.461-146.929"/>
	<path fill="none" stroke="#000000" stroke-width="4" stroke-miterlimit="10" d="M826.213,595.411c0.11,0.729,0.22,1.46,0.325,2.194
		c2.17,15.145,3.292,30.63,3.292,46.378c0,50.745-11.661,98.765-32.448,141.529"/>
	<path fill="none" stroke="#000000" stroke-width="4" stroke-miterlimit="10" d="M664.994,361.616
		c73.053,41.308,128.483,110.152,152.199,192.436"/>
	<path fill="none" stroke="#000000" stroke-width="4" stroke-miterlimit="10" d="M380.896,344.72
		c38.404-16.034,80.557-24.89,124.781-24.89c42.769,0,83.604,8.281,120.987,23.328"/>
	<path fill="none" stroke="#000000" stroke-width="4" stroke-miterlimit="10" d="M192.402,560.408
		c22.142-83.208,76.552-153.259,149.018-195.935"/>
	<path fill="none" stroke="#000000" stroke-width="4" stroke-miterlimit="10" d="M250.206,931.559
		c61.838-71.415,151.296-114.449,253.185-114.449c100.909,0,191.469,44.317,253.277,114.551"/>
	<polyline fill="none" stroke="#000000" stroke-width="4" stroke-miterlimit="10" points="211.91,508.886 414.915,458.136 
		605.085,458.136 800.529,509.121 	"/>
	
		<line fill="none" stroke="#000000" stroke-width="4" stroke-miterlimit="10" x1="182.049" y1="853.456" x2="236.146" y2="822.105"/>
	<line fill="none" stroke="#000000" stroke-width="4" stroke-miterlimit="10" x1="158.154" y1="809.077" x2="212.237" y2="781.89"/>
	
		<line fill="none" stroke="#000000" stroke-width="4" stroke-miterlimit="10" x1="125.106" y1="587.691" x2="184.179" y2="602.323"/>
	<line fill="none" stroke="#000000" stroke-width="4" stroke-miterlimit="10" x1="135.223" y1="540.04" x2="194.852" y2="558.801"/>
	
		<line fill="none" stroke="#000000" stroke-width="4" stroke-miterlimit="10" x1="311.151" y1="312.063" x2="340.311" y2="365.133"/>
	
		<line fill="none" stroke="#000000" stroke-width="4" stroke-miterlimit="10" x1="357.399" y1="288.943" x2="383.087" y2="343.817"/>
	
		<line fill="none" stroke="#000000" stroke-width="4" stroke-miterlimit="10" x1="649.352" y1="286.659" x2="623.504" y2="343.425"/>
	
		<line fill="none" stroke="#000000" stroke-width="4" stroke-miterlimit="10" x1="697.064" y1="309.085" x2="666.534" y2="362.495"/>
	<line fill="none" stroke="#000000" stroke-width="4" stroke-miterlimit="10" x1="817.193" y1="551.92" x2="876.225" y2="538.268"/>
	
		<line fill="none" stroke="#000000" stroke-width="4" stroke-miterlimit="10" x1="826.538" y1="597.605" x2="886.315" y2="588.125"/>
	
		<line fill="none" stroke="#000000" stroke-width="4" stroke-miterlimit="10" x1="795.972" y1="782.651" x2="850.846" y2="813.944"/>
	
		<line fill="none" stroke="#000000" stroke-width="4" stroke-miterlimit="10" x1="774.505" y1="820.747" x2="825.673" y2="860.814"/>
	<line fill="none" stroke="#000000" stroke-width="4" stroke-miterlimit="10" x1="17.288" y1="643.164" x2="45.069" y2="643.164"/>
	<line fill="none" stroke="#000000" stroke-width="4" stroke-miterlimit="10" x1="89.809" y1="643.164" x2="120.135" y2="643.164"/>
	<line fill="none" stroke="#000000" stroke-width="4" stroke-miterlimit="10" x1="60.508" y1="873.047" x2="60.508" y2="968.131"/>
	
		<line fill="none" stroke="#000000" stroke-width="4" stroke-miterlimit="10" x1="121.017" y1="873.047" x2="121.017" y2="1002.708"/>
	<line fill="none" stroke="#000000" stroke-width="4" stroke-miterlimit="10" x1="60.508" y1="881.695" x2="121.017" y2="881.695"/>
	<line fill="none" stroke="#000000" stroke-width="4" stroke-miterlimit="10" x1="60.508" y1="898.983" x2="121.017" y2="898.983"/>
	<line fill="none" stroke="#000000" stroke-width="4" stroke-miterlimit="10" x1="60.508" y1="916.271" x2="121.017" y2="916.271"/>
	<line fill="none" stroke="#000000" stroke-width="4" stroke-miterlimit="10" x1="60.508" y1="933.56" x2="121.017" y2="933.56"/>
	<line fill="none" stroke="#000000" stroke-width="4" stroke-miterlimit="10" x1="17.288" y1="924.911" x2="60.508" y2="924.911"/>
	<line fill="none" stroke="#000000" stroke-width="4" stroke-miterlimit="10" x1="17.288" y1="942.203" x2="60.508" y2="942.203"/>
	
		<line fill="none" stroke="#000000" stroke-width="4" stroke-miterlimit="10" x1="17.288" y1="1002.708" x2="138.305" y2="1002.708"/>
	
		<line fill="none" stroke="#000000" stroke-width="4" stroke-miterlimit="10" x1="138.305" y1="1037.284" x2="138.305" y2="1149.656"/>
	
		<line fill="none" stroke="#000000" stroke-width="4" stroke-miterlimit="10" x1="164.237" y1="1037.288" x2="216.102" y2="1037.288"/>
	<polyline fill="none" stroke="#000000" stroke-width="4" stroke-miterlimit="10" points="233.39,1037.288 259.322,1037.288 
		259.322,1106.44 138.305,1106.44 	"/>
	<polyline fill="none" stroke="#000000" stroke-width="4" stroke-miterlimit="10" points="293.898,965.143 293.898,1054.576 
		311.187,1054.576 311.187,1149.661 	"/>
	
		<line fill="none" stroke="#000000" stroke-width="4" stroke-miterlimit="10" x1="180.488" y1="926.604" x2="213.919" y2="894.672"/>
	<path fill="none" stroke="#000000" stroke-width="4" stroke-miterlimit="10" d="M155.593,890.339c0,0,51.865,34.576,8.645,86.437
		l60.509,34.576h34.576V939.41"/>
	
		<line fill="none" stroke="#000000" stroke-width="4" stroke-miterlimit="10" x1="259.322" y1="976.779" x2="293.898" y2="976.779"/>
	
		<line fill="none" stroke="#000000" stroke-width="4" stroke-miterlimit="10" x1="259.322" y1="994.067" x2="293.898" y2="994.067"/>
	<path fill="none" stroke="#000000" stroke-width="4" stroke-miterlimit="10" d="M812.542,1149.661v-60.509h-17.288v-77.797
		l43.221-43.22c0,0-34.576-43.221,8.645-77.797"/>
	<line fill="none" stroke="#000000" stroke-width="4" stroke-miterlimit="10" x1="798.64" y1="894.67" x2="825.673" y2="925.873"/>
	
		<line fill="none" stroke="#000000" stroke-width="4" stroke-miterlimit="10" x1="864.411" y1="1054.576" x2="864.411" y2="1149.661"/>
	
		<line fill="none" stroke="#000000" stroke-width="4" stroke-miterlimit="10" x1="1002.712" y1="1002.712" x2="864.407" y2="1002.712"/>
	
		<line fill="none" stroke="#000000" stroke-width="4" stroke-miterlimit="10" x1="890.343" y1="890.339" x2="890.343" y2="1002.712"/>
	
		<line fill="none" stroke="#000000" stroke-width="4" stroke-miterlimit="10" x1="933.563" y1="890.339" x2="933.563" y2="950.848"/>
	
		<line fill="none" stroke="#000000" stroke-width="4" stroke-miterlimit="10" x1="976.779" y1="890.339" x2="976.779" y2="1002.712"/>
	
		<line fill="none" stroke="#000000" stroke-width="4" stroke-miterlimit="10" x1="890.339" y1="898.983" x2="976.779" y2="898.983"/>
	
		<line fill="none" stroke="#000000" stroke-width="4" stroke-miterlimit="10" x1="890.339" y1="916.271" x2="976.779" y2="916.271"/>
	<line fill="none" stroke="#000000" stroke-width="4" stroke-miterlimit="10" x1="890.339" y1="933.56" x2="976.779" y2="933.56"/>
	
		<line fill="none" stroke="#000000" stroke-width="4" stroke-miterlimit="10" x1="890.339" y1="950.848" x2="976.779" y2="950.848"/>
	
		<line fill="none" stroke="#000000" stroke-width="4" stroke-miterlimit="10" x1="259.322" y1="1011.355" x2="293.898" y2="1011.355"/>
	<line fill="none" stroke="#000000" stroke-width="4" stroke-miterlimit="10" x1="60.508" y1="950.848" x2="121.017" y2="950.848"/>
	<line fill="none" stroke="#000000" stroke-width="4" stroke-miterlimit="10" x1="17.288" y1="959.491" x2="60.508" y2="959.491"/>
	<g>
		<path d="M501.464,194.927c-3.392,0-6.067,1.129-8.03,3.387c-1.963,2.259-2.944,5.35-2.944,9.275c0,4.038,0.946,7.158,2.839,9.359
			c1.892,2.202,4.59,3.303,8.093,3.303c2.153,0,4.607-0.387,7.365-1.16v3.144c-2.139,0.803-4.776,1.203-7.913,1.203
			c-4.545,0-8.052-1.379-10.521-4.136c-2.47-2.758-3.704-6.676-3.704-11.755c0-3.18,0.595-5.966,1.783-8.357
			c1.189-2.392,2.905-4.234,5.149-5.529c2.244-1.294,4.886-1.941,7.925-1.941c3.235,0,6.063,0.591,8.483,1.772l-1.52,3.081
			C506.135,195.476,503.799,194.927,501.464,194.927z"/>
		<path d="M533.667,223.016h-20.28v-3.018l8.125-8.167c2.476-2.505,4.107-4.291,4.896-5.36s1.379-2.11,1.773-3.124
			c0.394-1.013,0.591-2.103,0.591-3.271c0-1.646-0.5-2.951-1.498-3.915c-1-0.964-2.385-1.445-4.158-1.445
			c-1.28,0-2.493,0.211-3.64,0.633c-1.147,0.422-2.424,1.189-3.831,2.301l-1.856-2.385c2.842-2.364,5.937-3.546,9.285-3.546
			c2.898,0,5.171,0.742,6.816,2.227c1.646,1.484,2.47,3.479,2.47,5.982c0,1.956-0.549,3.891-1.646,5.804
			c-1.098,1.914-3.151,4.334-6.162,7.26l-6.753,6.605v0.169h15.869V223.016z"/>
	</g>
	<g>
		<path d="M925.022,1076.622c-3.392,0-6.067,1.129-8.03,3.387c-1.963,2.259-2.944,5.35-2.944,9.275c0,4.038,0.946,7.158,2.839,9.359
			c1.892,2.202,4.59,3.303,8.093,3.303c2.153,0,4.607-0.387,7.365-1.16v3.144c-2.139,0.803-4.776,1.203-7.913,1.203
			c-4.545,0-8.052-1.379-10.521-4.136c-2.47-2.758-3.704-6.676-3.704-11.755c0-3.18,0.595-5.966,1.783-8.357
			c1.189-2.392,2.905-4.234,5.149-5.529c2.244-1.294,4.886-1.941,7.925-1.941c3.235,0,6.063,0.591,8.483,1.772l-1.52,3.081
			C929.693,1077.171,927.357,1076.622,925.022,1076.622z"/>
		<path d="M958.682,1097.62h-4.579v7.091h-3.355v-7.091h-15.005v-3.06l14.646-20.872h3.714v20.745h4.579V1097.62z M950.747,1094.434
			v-10.257c0-2.012,0.07-4.284,0.211-6.816h-0.169c-0.675,1.351-1.309,2.47-1.899,3.355l-9.644,13.718H950.747z"/>
	</g>
	<g>
		<path d="M69.258,1059.333c-3.391,0-6.067,1.129-8.03,3.387c-1.963,2.259-2.944,5.35-2.944,9.275c0,4.038,0.946,7.158,2.838,9.359
			c1.892,2.202,4.59,3.303,8.093,3.303c2.152,0,4.607-0.387,7.365-1.16v3.144c-2.139,0.803-4.777,1.203-7.914,1.203
			c-4.544,0-8.051-1.379-10.52-4.136c-2.469-2.758-3.704-6.676-3.704-11.755c0-3.18,0.594-5.966,1.783-8.357
			c1.188-2.392,2.905-4.234,5.149-5.529c2.244-1.294,4.886-1.941,7.925-1.941c3.236,0,6.063,0.591,8.483,1.772l-1.52,3.081
			C73.929,1059.882,71.594,1059.333,69.258,1059.333z"/>
		<path d="M100.302,1063.828c0,1.97-0.553,3.58-1.657,4.833c-1.104,1.252-2.67,2.089-4.696,2.511v0.169
			c2.476,0.31,4.312,1.098,5.508,2.363c1.196,1.267,1.794,2.927,1.794,4.98c0,2.941-1.021,5.202-3.06,6.785
			c-2.041,1.583-4.938,2.374-8.695,2.374c-1.632,0-3.127-0.123-4.484-0.369c-1.358-0.246-2.677-0.679-3.957-1.298v-3.334
			c1.336,0.661,2.761,1.164,4.273,1.509c1.512,0.345,2.944,0.517,4.294,0.517c5.332,0,7.999-2.089,7.999-6.268
			c0-3.742-2.941-5.613-8.821-5.613h-3.039v-3.019h3.081c2.406,0,4.312-0.53,5.719-1.593c1.407-1.062,2.11-2.536,2.11-4.422
			c0-1.505-0.517-2.687-1.551-3.545s-2.438-1.287-4.21-1.287c-1.351,0-2.625,0.183-3.82,0.549c-1.196,0.365-2.561,1.041-4.094,2.025
			l-1.773-2.363c1.267-0.999,2.726-1.783,4.379-2.354c1.653-0.569,3.394-0.854,5.223-0.854c2.997,0,5.325,0.686,6.985,2.058
			C99.472,1059.555,100.302,1061.437,100.302,1063.828z"/>
	</g>
	<g>
		<path d="M200.987,1087.422h-3.545l-6.226-20.66c-0.296-0.915-0.627-2.068-0.992-3.461c-0.366-1.394-0.556-2.23-0.569-2.512
			c-0.311,1.857-0.803,3.891-1.478,6.099l-6.036,20.534h-3.545l-8.21-30.854h3.799l4.875,19.057c0.676,2.673,1.168,5.093,1.478,7.26
			c0.38-2.575,0.942-5.093,1.688-7.556l5.529-18.761h3.798l5.804,18.93c0.676,2.182,1.245,4.643,1.71,7.387
			c0.267-1.998,0.773-4.432,1.52-7.302l4.854-19.015h3.799L200.987,1087.422z"/>
		<path d="M227.283,1059.333c-3.392,0-6.067,1.129-8.03,3.387c-1.963,2.259-2.944,5.35-2.944,9.275c0,4.038,0.946,7.158,2.839,9.359
			c1.892,2.202,4.59,3.303,8.093,3.303c2.153,0,4.607-0.387,7.365-1.16v3.144c-2.139,0.803-4.776,1.203-7.913,1.203
			c-4.545,0-8.052-1.379-10.521-4.136c-2.47-2.758-3.704-6.676-3.704-11.755c0-3.18,0.595-5.966,1.783-8.357
			c1.189-2.392,2.905-4.234,5.149-5.529c2.244-1.294,4.886-1.941,7.925-1.941c3.235,0,6.063,0.591,8.483,1.772l-1.52,3.081
			C231.954,1059.882,229.618,1059.333,227.283,1059.333z"/>
	</g>
	<g>
		<path d="M501.464,627.13c-3.392,0-6.067,1.129-8.03,3.387c-1.963,2.259-2.944,5.35-2.944,9.275c0,4.038,0.946,7.158,2.839,9.359
			c1.892,2.202,4.59,3.303,8.093,3.303c2.153,0,4.607-0.387,7.365-1.16v3.144c-2.139,0.803-4.776,1.203-7.913,1.203
			c-4.545,0-8.052-1.379-10.521-4.136c-2.47-2.758-3.704-6.676-3.704-11.755c0-3.18,0.595-5.966,1.783-8.357
			c1.189-2.392,2.905-4.234,5.149-5.529c2.244-1.294,4.886-1.941,7.925-1.941c3.235,0,6.063,0.591,8.483,1.772l-1.52,3.081
			C506.135,627.679,503.799,627.13,501.464,627.13z"/>
		<path d="M526.365,655.219h-3.419v-21.99c0-1.828,0.057-3.559,0.169-5.191c-0.295,0.296-0.626,0.605-0.991,0.929
			c-0.366,0.324-2.04,1.695-5.023,4.115l-1.856-2.406l8.167-6.31h2.954V655.219z"/>
	</g>
	<g>
		<path d="M26.195,103.555V38.763h7.534V96.73h28.585v6.825H26.195z"/>
		<path d="M92.716,104.441c-7.179,0-12.845-2.186-16.996-6.559c-4.151-4.372-6.227-10.443-6.227-18.214
			c0-7.829,1.928-14.049,5.783-18.658c3.856-4.609,9.033-6.914,15.534-6.914c6.086,0,10.902,2.002,14.447,6.005
			c3.545,4.004,5.318,9.285,5.318,15.844v4.653h-33.46c0.147,5.703,1.588,10.031,4.321,12.985c2.732,2.955,6.582,4.432,11.545,4.432
			c5.229,0,10.399-1.093,15.511-3.28v6.559c-2.6,1.123-5.06,1.928-7.379,2.416C98.794,104.198,95.996,104.441,92.716,104.441z
			 M90.722,60.257c-3.9,0-7.01,1.271-9.329,3.811c-2.32,2.542-3.686,6.057-4.1,10.548h25.394c0-4.638-1.035-8.191-3.102-10.658
			C97.517,61.491,94.562,60.257,90.722,60.257z"/>
		<path d="M133.754,103.555l-18.436-48.572h7.889l10.459,28.807c2.363,6.736,3.752,11.109,4.166,13.118h0.354
			c0.324-1.566,1.352-4.809,3.08-9.728c1.729-4.919,5.607-15.651,11.633-32.197h7.889l-18.436,48.572H133.754z"/>
		<path d="M189.107,104.441c-7.18,0-12.846-2.186-16.996-6.559c-4.151-4.372-6.227-10.443-6.227-18.214
			c0-7.829,1.928-14.049,5.783-18.658c3.855-4.609,9.033-6.914,15.533-6.914c6.086,0,10.902,2.002,14.448,6.005
			c3.545,4.004,5.317,9.285,5.317,15.844v4.653h-33.46c0.147,5.703,1.588,10.031,4.321,12.985c2.732,2.955,6.581,4.432,11.545,4.432
			c5.229,0,10.399-1.093,15.511-3.28v6.559c-2.6,1.123-5.06,1.928-7.379,2.416C195.186,104.198,192.387,104.441,189.107,104.441z
			 M187.113,60.257c-3.9,0-7.011,1.271-9.329,3.811c-2.32,2.542-3.687,6.057-4.1,10.548h25.394c0-4.638-1.034-8.191-3.102-10.658
			C193.908,61.491,190.953,60.257,187.113,60.257z"/>
		<path d="M226.865,103.555h-7.356V34.597h7.356V103.555z"/>
		<path d="M294.894,44.568c-7.12,0-12.741,2.371-16.862,7.113c-4.122,4.742-6.183,11.235-6.183,19.478
			c0,8.48,1.986,15.032,5.961,19.655c3.974,4.624,9.639,6.936,16.996,6.936c4.521,0,9.676-0.812,15.467-2.438v6.604
			c-4.491,1.684-10.031,2.526-16.619,2.526c-9.544,0-16.907-2.895-22.093-8.686c-5.186-5.791-7.777-14.019-7.777-24.685
			c0-6.677,1.247-12.527,3.744-17.55c2.497-5.022,6.101-8.893,10.813-11.611c4.713-2.718,10.26-4.077,16.642-4.077
			c6.795,0,12.733,1.241,17.815,3.723l-3.19,6.47C304.703,45.721,299.798,44.568,294.894,44.568z"/>
	</g>
	<rect fill="none" width="1020" height="1166"/>
</g>
</svg>
