<?xml version="1.0" encoding="utf-8"?>
<!-- Generator: Adobe Illustrator 16.0.0, SVG Export Plug-In . SVG Version: 6.00 Build 0)  -->
<!DOCTYPE svg PUBLIC "-//W3C//DTD SVG 1.1//EN" "http://www.w3.org/Graphics/SVG/1.1/DTD/svg11.dtd">
<svg version="1.1" id="Layer_1" xmlns="http://www.w3.org/2000/svg" xmlns:xlink="http://www.w3.org/1999/xlink" x="0px" y="0px"
	 width="1020px" height="1280px" viewBox="0 0 1020 1280" enable-background="new 0 0 1020 1280" xml:space="preserve">
<g>
	<polyline fill="none" stroke="#000000" stroke-width="4" stroke-miterlimit="10" points="924.915,1184.237 924.915,795.254 
		1002.712,795.254 1002.712,224.746 898.983,224.746 898.983,17.288 691.525,17.288 691.525,414.915 17.288,414.915 
		17.288,1262.034 803.898,1262.034 803.898,1184.237 864.407,1184.237 864.407,795.254 752.034,795.254 752.034,933.56 
		691.525,933.56 691.525,1201.525 708.813,1201.525 708.813,1184.237 803.898,1184.237 	"/>
	<polyline fill="none" stroke="#000000" stroke-width="4" stroke-miterlimit="10" points="734.746,414.915 760.678,414.915 
		803.898,380.339 1002.712,380.339 	"/>
	<polyline fill="none" stroke="#000000" stroke-width="4" stroke-miterlimit="10" points="864.407,380.339 864.407,752.034 
		760.678,752.034 760.678,414.915 	"/>
	<path fill="none" stroke="#000000" stroke-width="4" stroke-miterlimit="10" d="M17.288,803.898h95.085V700.17h103.729
		c0,0,54.194-107.756,181.525-77.797c146.949,34.576,216.102,51.864,216.102,51.864s77.797,8.644,77.797-69.152
		c0-69.152,0-190.17,0-190.17"/>
	<polyline fill="none" stroke="#000000" stroke-width="4" stroke-miterlimit="10" points="587.797,414.915 587.797,440.848 
		544.576,440.848 544.576,518.645 570.509,518.645 648.305,605.085 691.525,605.085 	"/>
	
		<rect x="103.729" y="933.56" fill="none" stroke="#000000" stroke-width="4" stroke-miterlimit="10" width="112.373" height="86.44"/>
	
		<rect x="103.729" y="1020" fill="none" stroke="#000000" stroke-width="4" stroke-miterlimit="10" width="17.288" height="69.152"/>
	
		<rect x="596.44" y="933.56" fill="none" stroke="#000000" stroke-width="4" stroke-miterlimit="10" width="95.085" height="86.44"/>
	<polyline fill="none" stroke="#000000" stroke-width="4" stroke-miterlimit="10" points="285.254,1020 354.407,1020 
		354.407,1002.712 458.136,1002.712 458.136,1020 518.645,1020 	"/>
	<polyline fill="none" stroke="#000000" stroke-width="4" stroke-miterlimit="10" points="302.542,1020 302.542,933.56 
		501.355,933.56 501.355,1020 	"/>
	<line fill="none" stroke="#000000" stroke-width="4" stroke-miterlimit="10" x1="121.017" y1="890.339" x2="121.017" y2="933.56"/>
	
		<line fill="none" stroke="#000000" stroke-width="4" stroke-miterlimit="10" x1="121.017" y1="838.475" x2="121.017" y2="855.763"/>
	
		<line fill="none" stroke="#000000" stroke-width="4" stroke-miterlimit="10" x1="121.017" y1="1089.152" x2="121.017" y2="1201.525"/>
	
		<line fill="none" stroke="#000000" stroke-width="4" stroke-miterlimit="10" x1="17.288" y1="1089.152" x2="112.373" y2="1089.152"/>
	<polyline fill="none" stroke="#000000" stroke-width="4" stroke-miterlimit="10" points="17.288,1192.881 103.729,1192.881 
		103.729,1201.525 224.746,1201.525 	"/>
	<line fill="none" stroke="#000000" stroke-width="4" stroke-miterlimit="10" x1="293.898" y1="1201.525" x2="510" y2="1201.525"/>
	
		<line fill="none" stroke="#000000" stroke-width="4" stroke-miterlimit="10" x1="544.576" y1="1201.525" x2="691.525" y2="1201.525"/>
	<line fill="none" stroke="#000000" stroke-width="4" stroke-miterlimit="10" x1="579.152" y1="1020" x2="691.525" y2="1020"/>
	<g>
		<g>
			
				<line fill="none" stroke="#000000" stroke-width="4" stroke-miterlimit="10" x1="259.322" y1="1011.355" x2="259.322" y2="1019.355"/>
			
				<line fill="none" stroke="#000000" stroke-width="4" stroke-miterlimit="10" stroke-dasharray="15.8336,15.8336" x1="259.322" y1="1035.189" x2="259.322" y2="1185.608"/>
			
				<line fill="none" stroke="#000000" stroke-width="4" stroke-miterlimit="10" x1="259.322" y1="1193.525" x2="259.322" y2="1201.525"/>
		</g>
	</g>
	<g>
		<g>
			
				<line fill="none" stroke="#000000" stroke-width="4" stroke-miterlimit="10" x1="406.271" y1="1011.355" x2="406.271" y2="1019.355"/>
			
				<line fill="none" stroke="#000000" stroke-width="4" stroke-miterlimit="10" stroke-dasharray="15.8336,15.8336" x1="406.271" y1="1035.189" x2="406.271" y2="1185.608"/>
			
				<line fill="none" stroke="#000000" stroke-width="4" stroke-miterlimit="10" x1="406.271" y1="1193.525" x2="406.271" y2="1201.525"/>
		</g>
	</g>
	<g>
		<g>
			
				<line fill="none" stroke="#000000" stroke-width="4" stroke-miterlimit="10" x1="553.221" y1="1011.355" x2="553.221" y2="1019.355"/>
			
				<line fill="none" stroke="#000000" stroke-width="4" stroke-miterlimit="10" stroke-dasharray="15.8336,15.8336" x1="553.221" y1="1035.189" x2="553.221" y2="1185.608"/>
			
				<line fill="none" stroke="#000000" stroke-width="4" stroke-miterlimit="10" x1="553.221" y1="1193.525" x2="553.221" y2="1201.525"/>
		</g>
	</g>
	<polygon points="890.339,1175.594 864.407,1210.17 916.271,1210.17 	"/>
	<g>
		
			<circle fill="none" stroke="#000000" stroke-width="4" stroke-miterlimit="10" stroke-dasharray="15.7226,15.7226" cx="354.407" cy="752.034" r="95.084"/>
	</g>
	
		<rect x="812.542" y="60.508" fill="none" stroke="#000000" stroke-width="4" stroke-miterlimit="10" width="34.577" height="138.305"/>
	<line fill="none" stroke="#000000" stroke-width="4" stroke-miterlimit="10" x1="812.542" y1="77.796" x2="847.119" y2="77.796"/>
	<line fill="none" stroke="#000000" stroke-width="4" stroke-miterlimit="10" x1="812.542" y1="95.085" x2="847.119" y2="95.085"/>
	
		<line fill="none" stroke="#000000" stroke-width="4" stroke-miterlimit="10" x1="812.542" y1="129.661" x2="847.119" y2="129.661"/>
	
		<line fill="none" stroke="#000000" stroke-width="4" stroke-miterlimit="10" x1="812.542" y1="164.237" x2="847.119" y2="164.237"/>
	
		<line fill="none" stroke="#000000" stroke-width="4" stroke-miterlimit="10" x1="812.542" y1="112.373" x2="847.119" y2="112.373"/>
	
		<line fill="none" stroke="#000000" stroke-width="4" stroke-miterlimit="10" x1="812.542" y1="146.949" x2="847.119" y2="146.949"/>
	
		<line fill="none" stroke="#000000" stroke-width="4" stroke-miterlimit="10" x1="812.542" y1="181.525" x2="847.119" y2="181.525"/>
	
		<rect x="665.594" y="1227.458" fill="none" stroke="#000000" stroke-width="4" stroke-miterlimit="10" width="138.305" height="34.576"/>
	
		<line fill="none" stroke="#000000" stroke-width="4" stroke-miterlimit="10" x1="682.881" y1="1262.034" x2="682.881" y2="1227.458"/>
	
		<line fill="none" stroke="#000000" stroke-width="4" stroke-miterlimit="10" x1="700.17" y1="1262.034" x2="700.17" y2="1227.458"/>
	
		<line fill="none" stroke="#000000" stroke-width="4" stroke-miterlimit="10" x1="734.746" y1="1262.034" x2="734.746" y2="1227.458"/>
	
		<line fill="none" stroke="#000000" stroke-width="4" stroke-miterlimit="10" x1="769.322" y1="1262.034" x2="769.322" y2="1227.458"/>
	
		<line fill="none" stroke="#000000" stroke-width="4" stroke-miterlimit="10" x1="717.458" y1="1262.034" x2="717.458" y2="1227.458"/>
	
		<line fill="none" stroke="#000000" stroke-width="4" stroke-miterlimit="10" x1="752.034" y1="1262.034" x2="752.034" y2="1227.458"/>
	
		<line fill="none" stroke="#000000" stroke-width="4" stroke-miterlimit="10" x1="786.61" y1="1262.034" x2="786.61" y2="1227.458"/>
	
		<rect x="62.152" y="985.424" fill="none" stroke="#000000" stroke-width="4" stroke-miterlimit="10" width="34.577" height="69.152"/>
	
		<rect x="23.932" y="1002.712" fill="none" stroke="#000000" stroke-width="4" stroke-miterlimit="10" width="34.576" height="51.864"/>
	<line fill="none" stroke="#000000" stroke-width="4" stroke-miterlimit="10" x1="23.932" y1="1020" x2="58.508" y2="1020"/>
	<line fill="none" stroke="#000000" stroke-width="4" stroke-miterlimit="10" x1="61.152" y1="1020" x2="95.729" y2="1020"/>
	
		<line fill="none" stroke="#000000" stroke-width="4" stroke-miterlimit="10" x1="22.932" y1="1037.288" x2="57.508" y2="1037.288"/>
	
		<line fill="none" stroke="#000000" stroke-width="4" stroke-miterlimit="10" x1="62.152" y1="1002.712" x2="96.729" y2="1002.712"/>
	
		<line fill="none" stroke="#000000" stroke-width="4" stroke-miterlimit="10" x1="61.152" y1="1037.288" x2="95.729" y2="1037.288"/>
	<polygon fill="none" stroke="#000000" stroke-width="4" stroke-miterlimit="10" points="665.594,803.898 708.813,812.542 
		691.525,881.695 648.305,873.051 	"/>
	<g>
		<path d="M827.435,309.457l-3.841-9.813h-12.366l-3.799,9.813h-3.63l12.198-30.98h3.018l12.135,30.98H827.435z M822.476,296.415
			l-3.588-9.56c-0.464-1.21-0.942-2.694-1.435-4.453c-0.31,1.351-0.753,2.835-1.33,4.453l-3.63,9.56H822.476z"/>
		<path d="M843.474,278.16c2.814,0,5.044,0.654,6.69,1.963c1.646,1.309,2.469,3.116,2.469,5.424c0,1.52-0.472,2.905-1.414,4.157
			s-2.448,2.392-4.516,3.419c2.504,1.195,4.284,2.451,5.339,3.767c1.056,1.315,1.583,2.839,1.583,4.569
			c0,2.561-0.894,4.604-2.681,6.131c-1.786,1.526-4.234,2.289-7.344,2.289c-3.292,0-5.824-0.721-7.598-2.163
			c-1.772-1.441-2.659-3.485-2.659-6.131c0-3.531,2.153-6.281,6.458-8.251c-1.941-1.098-3.334-2.282-4.179-3.556
			c-0.844-1.273-1.266-2.698-1.266-4.274c0-2.236,0.826-4.02,2.479-5.35C838.49,278.825,840.702,278.16,843.474,278.16z
			 M836.806,301.67c0,1.688,0.587,3.004,1.762,3.946s2.824,1.414,4.949,1.414c2.096,0,3.728-0.492,4.896-1.478
			c1.168-0.984,1.752-2.335,1.752-4.052c0-1.364-0.549-2.578-1.646-3.641c-1.098-1.062-3.011-2.093-5.74-3.092
			c-2.097,0.9-3.616,1.896-4.559,2.986C837.276,298.846,836.806,300.15,836.806,301.67z M843.432,281.009
			c-1.759,0-3.138,0.423-4.136,1.267c-1,0.845-1.499,1.97-1.499,3.377c0,1.294,0.415,2.405,1.245,3.334s2.364,1.857,4.601,2.786
			c2.012-0.845,3.437-1.752,4.273-2.723s1.256-2.104,1.256-3.397c0-1.421-0.51-2.55-1.53-3.388
			C846.622,281.428,845.219,281.009,843.432,281.009z"/>
	</g>
	<g>
		<path d="M17.55,215.929v-64.793h7.534v57.968h28.585v6.825H17.55z"/>
		<path d="M84.071,216.815c-7.179,0-12.845-2.187-16.996-6.56c-4.151-4.372-6.227-10.443-6.227-18.215
			c0-7.828,1.928-14.048,5.783-18.657c3.856-4.609,9.033-6.914,15.534-6.914c6.086,0,10.902,2.002,14.447,6.006
			s5.318,9.284,5.318,15.843v4.653h-33.46c0.147,5.703,1.588,10.031,4.321,12.985c2.732,2.955,6.582,4.432,11.545,4.432
			c5.229,0,10.399-1.093,15.511-3.279v6.56c-2.6,1.123-5.06,1.928-7.379,2.415C90.15,216.571,87.351,216.815,84.071,216.815z
			 M82.077,172.63c-3.9,0-7.01,1.271-9.329,3.812c-2.32,2.542-3.686,6.058-4.1,10.548h25.394c0-4.638-1.035-8.191-3.102-10.658
			C88.873,173.864,85.917,172.63,82.077,172.63z"/>
		<path d="M125.109,215.929l-18.436-48.572h7.889l10.459,28.807c2.363,6.736,3.752,11.109,4.166,13.118h0.354
			c0.324-1.565,1.352-4.809,3.08-9.728c1.729-4.92,5.607-15.651,11.633-32.197h7.889l-18.436,48.572H125.109z"/>
		<path d="M180.463,216.815c-7.18,0-12.846-2.187-16.996-6.56c-4.151-4.372-6.227-10.443-6.227-18.215
			c0-7.828,1.928-14.048,5.783-18.657s9.033-6.914,15.533-6.914c6.086,0,10.902,2.002,14.448,6.006
			c3.545,4.004,5.317,9.284,5.317,15.843v4.653h-33.46c0.147,5.703,1.588,10.031,4.321,12.985c2.732,2.955,6.581,4.432,11.545,4.432
			c5.229,0,10.399-1.093,15.511-3.279v6.56c-2.6,1.123-5.06,1.928-7.379,2.415S183.742,216.815,180.463,216.815z M178.469,172.63
			c-3.9,0-7.011,1.271-9.329,3.812c-2.32,2.542-3.687,6.058-4.1,10.548h25.394c0-4.638-1.034-8.191-3.102-10.658
			C185.264,173.864,182.309,172.63,178.469,172.63z"/>
		<path d="M218.221,215.929h-7.356V146.97h7.356V215.929z"/>
		<path d="M299.234,215.929l-8.065-20.607h-25.971l-7.977,20.607h-7.623l25.615-65.059h6.338l25.482,65.059H299.234z
			 M288.819,188.54l-7.533-20.075c-0.976-2.541-1.98-5.658-3.014-9.352c-0.65,2.837-1.581,5.954-2.792,9.352l-7.623,20.075H288.819z
			"/>
	</g>
	<g>
		<path d="M628.546,499.627h-3.545l-6.226-20.66c-0.296-0.915-0.627-2.068-0.992-3.461c-0.366-1.394-0.556-2.23-0.569-2.512
			c-0.311,1.857-0.803,3.891-1.478,6.099l-6.036,20.534h-3.545l-8.21-30.854h3.799l4.875,19.057c0.676,2.673,1.168,5.093,1.478,7.26
			c0.38-2.575,0.942-5.093,1.688-7.556l5.529-18.761h3.798l5.804,18.93c0.676,2.182,1.245,4.643,1.71,7.387
			c0.267-1.998,0.773-4.432,1.52-7.302l4.854-19.015h3.799L628.546,499.627z"/>
		<path d="M654.842,471.538c-3.392,0-6.067,1.129-8.03,3.387c-1.963,2.259-2.944,5.35-2.944,9.275c0,4.038,0.946,7.158,2.839,9.359
			c1.892,2.202,4.59,3.303,8.093,3.303c2.153,0,4.607-0.387,7.365-1.16v3.144c-2.139,0.803-4.776,1.203-7.913,1.203
			c-4.545,0-8.052-1.379-10.521-4.136c-2.47-2.758-3.704-6.676-3.704-11.755c0-3.18,0.595-5.966,1.783-8.357
			c1.189-2.392,2.905-4.234,5.149-5.529c2.244-1.294,4.886-1.941,7.925-1.941c3.235,0,6.063,0.591,8.483,1.772l-1.52,3.081
			C659.513,472.087,657.177,471.538,654.842,471.538z"/>
	</g>
	<g>
		<path d="M723.704,525.559l-3.841-9.813h-12.366l-3.799,9.813h-3.63l12.198-30.98h3.018l12.135,30.98H723.704z M718.745,512.517
			l-3.588-9.56c-0.464-1.21-0.942-2.694-1.435-4.453c-0.31,1.351-0.753,2.835-1.33,4.453l-3.63,9.56H718.745z"/>
		<path d="M733.434,525.559l12.789-27.625h-16.82v-3.229h20.534v2.807l-12.62,28.047H733.434z"/>
	</g>
	<g>
		<path d="M542.179,810.812l-3.841-9.813h-12.366l-3.799,9.813h-3.63l12.198-30.98h3.018l12.135,30.98H542.179z M537.22,797.771
			l-3.588-9.56c-0.464-1.21-0.942-2.694-1.435-4.453c-0.31,1.351-0.753,2.835-1.33,4.453l-3.63,9.56H537.22z"/>
		<path d="M568.284,810.812h-20.28v-3.018l8.125-8.167c2.476-2.505,4.107-4.291,4.896-5.36s1.379-2.11,1.773-3.124
			c0.394-1.013,0.591-2.103,0.591-3.271c0-1.646-0.5-2.951-1.498-3.915c-1-0.964-2.385-1.445-4.158-1.445
			c-1.28,0-2.493,0.211-3.64,0.633c-1.147,0.422-2.424,1.189-3.831,2.301l-1.856-2.385c2.842-2.364,5.937-3.546,9.285-3.546
			c2.898,0,5.171,0.742,6.816,2.227c1.646,1.484,2.47,3.479,2.47,5.982c0,1.956-0.549,3.891-1.646,5.804
			c-1.098,1.914-3.151,4.334-6.162,7.26l-6.753,6.605v0.169h15.869V810.812z"/>
	</g>
	<g>
		<path d="M352.009,767.594l-3.841-9.813h-12.366l-3.799,9.813h-3.63l12.198-30.98h3.018l12.135,30.98H352.009z M347.05,754.552
			l-3.588-9.56c-0.464-1.21-0.942-2.694-1.435-4.453c-0.31,1.351-0.753,2.835-1.33,4.453l-3.63,9.56H347.05z"/>
		<path d="M370.812,767.594h-3.419v-21.99c0-1.828,0.057-3.559,0.169-5.191c-0.295,0.296-0.626,0.605-0.991,0.929
			c-0.366,0.324-2.04,1.695-5.023,4.115l-1.856-2.406l8.167-6.31h2.954V767.594z"/>
	</g>
	<g>
		<path d="M187.772,1130.645l-3.841-9.813h-12.366l-3.799,9.813h-3.63l12.198-30.98h3.018l12.135,30.98H187.772z M182.813,1117.603
			l-3.588-9.56c-0.464-1.21-0.942-2.694-1.435-4.453c-0.31,1.351-0.753,2.835-1.33,4.453l-3.63,9.56H182.813z"/>
		<path d="M212.718,1107.051c0,1.97-0.553,3.58-1.657,4.833c-1.104,1.252-2.669,2.089-4.695,2.511v0.169
			c2.477,0.31,4.312,1.098,5.508,2.363c1.196,1.267,1.794,2.927,1.794,4.98c0,2.941-1.02,5.202-3.06,6.785s-4.938,2.374-8.695,2.374
			c-1.632,0-3.127-0.123-4.484-0.369s-2.677-0.679-3.957-1.298v-3.334c1.337,0.661,2.762,1.164,4.273,1.509
			c1.513,0.345,2.944,0.517,4.295,0.517c5.332,0,7.998-2.089,7.998-6.268c0-3.742-2.94-5.613-8.821-5.613h-3.039v-3.019h3.082
			c2.405,0,4.312-0.53,5.719-1.593c1.406-1.062,2.11-2.536,2.11-4.422c0-1.505-0.518-2.687-1.551-3.545
			c-1.034-0.858-2.438-1.287-4.211-1.287c-1.351,0-2.624,0.183-3.819,0.549c-1.196,0.365-2.561,1.041-4.095,2.025l-1.772-2.363
			c1.267-0.999,2.726-1.783,4.379-2.354c1.653-0.569,3.395-0.854,5.224-0.854c2.997,0,5.325,0.686,6.985,2.058
			S212.718,1104.659,212.718,1107.051z"/>
	</g>
	<g>
		<path d="M326.077,1130.645l-3.841-9.813H309.87l-3.799,9.813h-3.63l12.198-30.98h3.018l12.135,30.98H326.077z M321.118,1117.603
			l-3.588-9.56c-0.464-1.21-0.942-2.694-1.435-4.453c-0.31,1.351-0.753,2.835-1.33,4.453l-3.63,9.56H321.118z"/>
		<path d="M353.639,1123.554h-4.579v7.091h-3.355v-7.091h-15.005v-3.06l14.646-20.872h3.714v20.745h4.579V1123.554z
			 M345.704,1120.367v-10.257c0-2.012,0.07-4.284,0.211-6.816h-0.169c-0.675,1.351-1.309,2.47-1.899,3.355l-9.644,13.718H345.704z"
			/>
	</g>
	<g>
		<path d="M473.026,1130.645l-3.841-9.813h-12.366l-3.799,9.813h-3.63l12.198-30.98h3.018l12.135,30.98H473.026z M468.067,1117.603
			l-3.588-9.56c-0.464-1.21-0.942-2.694-1.435-4.453c-0.31,1.351-0.753,2.835-1.33,4.453l-3.63,9.56H468.067z"/>
		<path d="M488.496,1111.799c3.25,0,5.807,0.806,7.671,2.416c1.864,1.611,2.797,3.817,2.797,6.616c0,3.194-1.017,5.698-3.05,7.513
			c-2.033,1.815-4.837,2.723-8.41,2.723c-3.475,0-6.127-0.556-7.956-1.667v-3.377c0.984,0.634,2.209,1.13,3.672,1.488
			c1.464,0.358,2.905,0.538,4.326,0.538c2.477,0,4.4-0.584,5.772-1.752c1.371-1.167,2.058-2.855,2.058-5.064
			c0-4.306-2.638-6.458-7.914-6.458c-1.337,0-3.123,0.204-5.36,0.612l-1.814-1.161l1.16-14.435h15.343v3.229h-12.346l-0.781,9.265
			C485.281,1111.961,486.892,1111.799,488.496,1111.799z"/>
	</g>
	<g>
		<path d="M619.976,1130.645l-3.841-9.813h-12.366l-3.799,9.813h-3.63l12.198-30.98h3.018l12.135,30.98H619.976z M615.017,1117.603
			l-3.588-9.56c-0.464-1.21-0.942-2.694-1.435-4.453c-0.31,1.351-0.753,2.835-1.33,4.453l-3.63,9.56H615.017z"/>
		<path d="M626.159,1117.455c0-6.064,1.179-10.598,3.535-13.602s5.842-4.506,10.457-4.506c1.59,0,2.842,0.134,3.757,0.401v3.018
			c-1.084-0.352-2.322-0.527-3.715-0.527c-3.307,0-5.832,1.03-7.576,3.092c-1.744,2.061-2.701,5.3-2.87,9.718H630
			c1.548-2.42,3.996-3.63,7.345-3.63c2.771,0,4.955,0.837,6.553,2.512c1.597,1.674,2.395,3.946,2.395,6.816
			c0,3.208-0.875,5.729-2.627,7.565s-4.119,2.754-7.102,2.754c-3.193,0-5.727-1.199-7.597-3.598
			C627.095,1125.07,626.159,1121.731,626.159,1117.455z M636.521,1128.091c1.998,0,3.549-0.629,4.653-1.889
			c1.104-1.259,1.656-3.077,1.656-5.455c0-2.04-0.514-3.644-1.54-4.812c-1.027-1.168-2.561-1.752-4.601-1.752
			c-1.267,0-2.427,0.261-3.482,0.781c-1.055,0.521-1.896,1.238-2.521,2.152c-0.626,0.915-0.939,1.864-0.939,2.849
			c0,1.449,0.281,2.8,0.845,4.052c0.562,1.253,1.36,2.245,2.395,2.976C634.021,1127.726,635.199,1128.091,636.521,1128.091z"/>
	</g>
	<rect fill="none" width="1020" height="1280"/>
</g>
</svg>
