<?xml version="1.0" encoding="utf-8"?>
<!-- Generator: Adobe Illustrator 16.0.0, SVG Export Plug-In . SVG Version: 6.00 Build 0)  -->
<!DOCTYPE svg PUBLIC "-//W3C//DTD SVG 1.1//EN" "http://www.w3.org/Graphics/SVG/1.1/DTD/svg11.dtd">
<svg version="1.1" id="Layer_1" xmlns="http://www.w3.org/2000/svg" xmlns:xlink="http://www.w3.org/1999/xlink" x="0px" y="0px"
	 width="80px" height="76px" viewBox="0 0 80 76" enable-background="new 0 0 80 76" xml:space="preserve">
<g>
	<rect fill="none" width="80" height="76"/>
	<g>
		<path fill="#FFFFFF" d="M62.796,75c-0.345,0-0.675-0.106-0.955-0.309L39.816,58.885L17.801,74.691
			c-0.281,0.201-0.612,0.308-0.957,0.308c-0.349,0-0.683-0.108-0.965-0.314c-0.575-0.417-0.815-1.15-0.6-1.827l8.225-25.821
			L1.671,30.977c-0.572-0.421-0.81-1.157-0.591-1.832c0.22-0.671,0.845-1.127,1.554-1.132l27.105-0.154l8.519-25.732
			C38.48,1.452,39.106,1,39.816,1s1.336,0.452,1.559,1.125l8.523,25.733l27.106,0.154c0.71,0.005,1.334,0.46,1.553,1.133
			c0.22,0.674-0.018,1.41-0.59,1.831l-21.832,16.06l8.227,25.821c0.216,0.677-0.024,1.41-0.598,1.826
			C63.479,74.891,63.146,75,62.796,75L62.796,75z"/>
		<path fill="#CCCCCC" d="M39.816,2c0.277,0,0.522,0.177,0.609,0.44l8.298,25.051l0.451,1.363l1.436,0.008l26.387,0.15
			c0.279,0.002,0.524,0.18,0.609,0.441c0.086,0.264-0.007,0.552-0.231,0.717L56.121,45.805l-1.156,0.851l0.437,1.368l8.008,25.137
			c0.085,0.265-0.009,0.552-0.233,0.716C63.034,73.979,62.892,74,62.796,74c-0.093,0-0.233-0.021-0.373-0.121l-21.44-15.388
			l-1.166-0.837l-1.166,0.837L17.222,73.876c-0.143,0.102-0.284,0.123-0.378,0.123c-0.095,0-0.237-0.021-0.38-0.125
			c-0.223-0.162-0.316-0.448-0.232-0.713l8.007-25.138l0.436-1.368l-1.156-0.851L2.263,30.171c-0.224-0.165-0.317-0.454-0.233-0.711
			c0.087-0.266,0.333-0.445,0.609-0.447l26.389-0.15l1.436-0.008l0.451-1.363l8.294-25.054C39.294,2.176,39.539,2,39.816,2
			 M39.816,0c-1.14,0-2.151,0.73-2.508,1.812l-8.293,25.051l-26.389,0.15c-1.138,0.008-2.144,0.743-2.498,1.823
			c-0.352,1.085,0.03,2.271,0.949,2.946l21.255,15.634l-8.007,25.138c-0.347,1.087,0.043,2.271,0.964,2.939
			c0.463,0.337,1.007,0.506,1.554,0.506c0.54,0,1.079-0.166,1.54-0.495l21.433-15.388l21.44,15.388
			c0.46,0.33,0.999,0.496,1.539,0.496c0.545,0,1.091-0.169,1.556-0.507c0.921-0.668,1.31-1.853,0.964-2.939l-8.009-25.138
			l21.254-15.634c0.918-0.676,1.301-1.861,0.948-2.946c-0.352-1.08-1.359-1.815-2.498-1.823l-26.389-0.15L42.324,1.812
			C41.967,0.73,40.957,0,39.816,0L39.816,0z"/>
	</g>
</g>
</svg>
