<?xml version="1.0" encoding="utf-8"?>
<!-- Generator: Adobe Illustrator 16.0.0, SVG Export Plug-In . SVG Version: 6.00 Build 0)  -->
<!DOCTYPE svg PUBLIC "-//W3C//DTD SVG 1.1//EN" "http://www.w3.org/Graphics/SVG/1.1/DTD/svg11.dtd">
<svg version="1.1" id="Layer_1" xmlns="http://www.w3.org/2000/svg" xmlns:xlink="http://www.w3.org/1999/xlink" x="0px" y="0px"
	 width="56px" height="46px" viewBox="0 0 56 46" enable-background="new 0 0 56 46" xml:space="preserve">
<g>
	<rect fill="none" width="56" height="46"/>
	<path fill="#808080" d="M56,5.387c-2.061,0.914-4.274,1.532-6.599,1.809c2.372-1.422,4.193-3.673,5.052-6.356
		c-2.221,1.316-4.679,2.272-7.296,2.788C45.062,1.395,42.075,0,38.771,0c-6.346,0-11.489,5.144-11.489,11.489
		c0,0.9,0.102,1.777,0.297,2.618C18.03,13.628,9.565,9.054,3.898,2.103C2.91,3.8,2.343,5.773,2.343,7.879
		c0,3.986,2.028,7.502,5.111,9.563c-1.883-0.06-3.654-0.577-5.204-1.437c0,0.048-0.001,0.096-0.001,0.145
		c0,5.566,3.96,10.21,9.217,11.265c-0.965,0.264-1.979,0.403-3.027,0.403c-0.74,0-1.46-0.071-2.161-0.206
		c1.462,4.564,5.705,7.887,10.732,7.979c-3.933,3.082-8.887,4.919-14.269,4.919c-0.928,0-1.843-0.055-2.741-0.161
		c5.084,3.26,11.123,5.162,17.611,5.162c21.133,0,32.688-17.506,32.688-32.689c0-0.498-0.011-0.994-0.033-1.486
		C52.512,9.715,54.46,7.691,56,5.387z"/>
</g>
</svg>
